<svg width="27" height="27" viewBox="0 0 27 27" fill="none" xmlns="http://www.w3.org/2000/svg">
<path d="M13.5 0C10.83 0 8.21987 0.791761 5.99981 2.27516C3.77974 3.75856 2.04942 5.86697 1.02763 8.33377C0.00584936 10.8006 -0.261496 13.515 0.259405 16.1337C0.780305 18.7525 2.06606 21.1579 3.95406 23.0459C5.84207 24.934 8.24754 26.2197 10.8663 26.7406C13.485 27.2615 16.1994 26.9942 18.6662 25.9724C21.133 24.9506 23.2414 23.2203 24.7248 21.0002C26.2082 18.7801 27 16.17 27 13.5C26.997 9.92049 25.5738 6.48844 23.0427 3.95735C20.5116 1.42625 17.0795 0.0029792 13.5 0ZM13.5225 21.375C13.3748 21.3757 13.2283 21.3474 13.0916 21.2915C12.9548 21.2357 12.8304 21.1534 12.7254 21.0495C12.5133 20.8395 12.3934 20.554 12.3919 20.2556C12.3904 19.9573 12.5075 19.6705 12.7174 19.4585C12.9273 19.2464 13.2129 19.1265 13.5113 19.125H13.5225C13.8209 19.125 14.107 19.2435 14.318 19.4545C14.529 19.6655 14.6475 19.9516 14.6475 20.25C14.6475 20.5484 14.529 20.8345 14.318 21.0455C14.107 21.2565 13.8209 21.375 13.5225 21.375ZM15.6713 14.0681C15.3702 14.2132 15.1139 14.437 14.9297 14.7159C14.7455 14.9947 14.6402 15.3183 14.625 15.6521C14.6267 15.9556 14.5102 16.2479 14.3003 16.4671C14.0903 16.6863 13.8033 16.8152 13.5 16.8266C13.3549 16.8319 13.2102 16.808 13.0745 16.7564C12.9388 16.7048 12.8149 16.6264 12.71 16.526C12.6051 16.4257 12.5214 16.3053 12.4639 16.172C12.4063 16.0387 12.3761 15.8952 12.375 15.75C12.3722 14.9969 12.577 14.2576 12.9667 13.6133C13.3565 12.9689 13.9162 12.4443 14.5845 12.0971C15.0002 11.8682 15.3328 11.5137 15.5349 11.0843C15.7369 10.655 15.798 10.1727 15.7095 9.7065C15.6218 9.26235 15.4038 8.85442 15.0832 8.5348C14.7625 8.21518 14.3539 7.99839 13.9095 7.91213C13.5848 7.85203 13.2509 7.86413 12.9314 7.94758C12.6119 8.03103 12.3147 8.18377 12.0609 8.39497C11.8071 8.60617 11.6028 8.87065 11.4627 9.16964C11.3226 9.46863 11.2499 9.7948 11.25 10.125C11.25 10.4234 11.1315 10.7095 10.9205 10.9205C10.7095 11.1315 10.4234 11.25 10.125 11.25C9.82664 11.25 9.54049 11.1315 9.32951 10.9205C9.11853 10.7095 9.00001 10.4234 9.00001 10.125C9.00029 9.33132 9.21048 8.55183 9.60925 7.86561C10.008 7.17938 10.5812 6.61083 11.2706 6.21763C11.9601 5.82443 12.7413 5.62057 13.5349 5.62673C14.3286 5.63288 15.1065 5.84884 15.7897 6.25268C16.473 6.65653 17.0373 7.2339 17.4254 7.92623C17.8134 8.61856 18.0115 9.40121 17.9995 10.1948C17.9875 10.9884 17.7658 11.7647 17.3569 12.4449C16.948 13.1252 16.3664 13.6852 15.6713 14.0681Z" fill="#64DD77"/>
</svg>
