<svg width="27" height="27" viewBox="0 0 27 27" fill="none" xmlns="http://www.w3.org/2000/svg">
<path fill-rule="evenodd" clip-rule="evenodd" d="M3.37766 0H7.87234C9.74734 0 11.25 1.51671 11.25 3.37764V7.87368C11.25 9.74648 9.74734 11.25 7.87234 11.25H3.37766C1.51596 11.25 0 9.74648 0 7.87368V3.37764C0 1.51671 1.51596 0 3.37766 0ZM3.37766 15.75H7.87234C9.74734 15.75 11.25 17.2548 11.25 19.1276V23.6237C11.25 25.4833 9.74734 27 7.87234 27H3.37766C1.51596 27 0 25.4833 0 23.6237V19.1276C0 17.2548 1.51596 15.75 3.37766 15.75ZM23.6223 0H19.1277C17.2527 0 15.75 1.51671 15.75 3.37764V7.87368C15.75 9.74648 17.2527 11.25 19.1277 11.25H23.6223C25.484 11.25 27 9.74648 27 7.87368V3.37764C27 1.51671 25.484 0 23.6223 0ZM19.1277 15.75H23.6223C25.484 15.75 27 17.2548 27 19.1276V23.6237C27 25.4833 25.484 27 23.6223 27H19.1277C17.2527 27 15.75 25.4833 15.75 23.6237V19.1276C15.75 17.2548 17.2527 15.75 19.1277 15.75Z" fill="#64DD77"/>
</svg>
