<svg width="80" height="80" viewBox="0 0 80 80" fill="none" xmlns="http://www.w3.org/2000/svg">
<g clip-path="url(#clip0_55_30)">
<path d="M80 10C80 4.33333 75.6667 0 70 0H10C4.33333 0 0 4.33333 0 10V70C0 75.6667 4.33333 80 10 80H70C75.6667 80 80 75.6667 80 70V10ZM73.3333 70C73.3333 72 72 73.3333 70 73.3333H10C8 73.3333 6.66667 72 6.66667 70V10C6.66667 8 8 6.66667 10 6.66667H70C72 6.66667 73.3333 8 73.3333 10V70ZM48.3333 16.6667H20V63.3333H26.6667V46.6667H48.3333C56.6667 46.6667 63.3333 40 63.3333 31.6667C63.3333 23.3333 56.6667 16.6667 48.3333 16.6667ZM48.3333 40H26.6667V23.3333H48.3333C53 23.3333 56.6667 27 56.6667 31.6667C56.6667 36.3333 53 40 48.3333 40Z" fill="#64DD77"/>
</g>
<defs>
<clipPath id="clip0_55_30">
<rect width="80" height="80" fill="white"/>
</clipPath>
</defs>
</svg>
