<svg width="27" height="27" viewBox="0 0 27 27" fill="none" xmlns="http://www.w3.org/2000/svg">
<g clip-path="url(#clip0_31_32)">
<path d="M8.10001 5.4H6.75001C6.39197 5.4 6.04859 5.25777 5.79542 5.00459C5.54224 4.75142 5.40001 4.40804 5.40001 4.05C5.40001 3.69196 5.54224 3.34858 5.79542 3.09541C6.04859 2.84223 6.39197 2.7 6.75001 2.7H21.6V1.35C21.6 0.991958 21.4578 0.64858 21.2046 0.395406C20.9514 0.142232 20.6081 0 20.25 0L5.40001 0C4.68393 0 3.99717 0.284464 3.49082 0.790812C2.98448 1.29716 2.70001 1.98392 2.70001 2.7V24.3C2.70001 25.785 3.91501 27 5.40001 27H21.6C22.3161 27 23.0029 26.7155 23.5092 26.2092C24.0155 25.7028 24.3 25.0161 24.3 24.3V6.75C24.3 6.39196 24.1578 6.04858 23.9046 5.79541C23.6514 5.54223 23.3081 5.4 22.95 5.4H13.5V16.2L10.8 13.5L8.10001 16.2V5.4Z" fill="#64DD77"/>
</g>
<defs>
<clipPath id="clip0_31_32">
<rect width="27" height="27" fill="white"/>
</clipPath>
</defs>
</svg>
