<svg width="27" height="27" viewBox="0 0 27 27" fill="none" xmlns="http://www.w3.org/2000/svg">
<g clip-path="url(#clip0_31_14)">
<path d="M26.25 23.625H24V5.98536C24 4.54835 22.9922 3.37501 21.75 3.37501L16.5 3.37554V6.75001H21V27H26.25C26.666 27 27 26.6243 27 26.2037V24.5637C27 23.9994 26.6672 23.625 26.25 23.625ZM13.1391 0.0531115L4.13906 2.67665C3.42656 2.87456 3 3.57329 3 4.37063V23.625H0.75C0.333984 23.625 0 24.0007 0 24.4213V26.0613C0 26.6256 0.333984 27 0.75 27H15V1.7471C15 0.613309 14.0859 -0.223744 13.1391 0.0531115ZM10.875 15.1875C10.2539 15.1875 9.75 14.4297 9.75 13.5475C9.75 12.6183 10.2539 11.9074 10.875 11.9074C11.4961 11.9074 12 12.5719 12 13.5C12 14.4281 11.4984 15.1875 10.875 15.1875Z" fill="#64DD77"/>
</g>
<defs>
<clipPath id="clip0_31_14">
<rect width="27" height="27" fill="white"/>
</clipPath>
</defs>
</svg>
