<svg width="70" height="147" viewBox="0 0 70 147" fill="none" xmlns="http://www.w3.org/2000/svg">
<path d="M3.47398 38.7437C3.02225 35.5776 2.7959 32.3825 2.7959 29.1848L2.7959 22.3794C2.7959 10.0198 12.8155 4.57764e-05 25.1753 4.57764e-05H34.725H44.2748C56.6343 4.57764e-05 66.6542 10.0198 66.6542 22.3794V29.1848C66.6542 32.3825 66.4277 35.5776 65.9764 38.7437L64.6383 48.1304C64.1422 51.6073 63.9175 55.1167 63.9666 58.6287L64.5066 97.6041C64.5382 99.8948 64.8991 102.169 65.5795 104.356C66.2916 106.649 66.6542 109.037 66.6542 111.438V128.735C66.6542 138.292 58.9066 146.04 49.3495 146.04H34.725H20.101C10.5437 146.04 2.7959 138.292 2.7959 128.735L2.7959 111.438C2.7959 109.037 3.15807 106.649 3.87076 104.356C4.55051 102.169 4.91173 99.8948 4.94325 97.6041L5.4834 58.6287C5.53248 55.1167 5.3078 51.6073 4.81225 48.1304L3.47398 38.7437Z" fill="black"/>
<path opacity="0.7" d="M64.2166 40.6744C64.6425 37.6857 64.8567 34.6715 64.8567 31.653V25.2313C64.8567 13.567 55.4014 4.11176 43.7368 4.11176H34.7248H25.7129C14.049 4.11176 4.59351 13.567 4.59351 25.2313L4.59351 31.653C4.59351 34.6715 4.80721 37.6857 5.23349 40.6744L6.49634 49.5317C6.96414 52.8128 7.17583 56.1246 7.12982 59.4391L6.62014 96.2204C6.59037 98.3811 6.24944 100.528 5.60805 102.591C4.93549 104.755 4.59351 107.008 4.59351 109.275L4.59351 125.597C4.59351 134.617 11.9051 141.928 20.9239 141.928H34.7248H48.5257C57.5446 141.928 64.8567 134.617 64.8567 125.597V109.275C64.8567 107.008 64.5143 104.755 63.8417 102.591C63.1999 100.528 62.8592 98.3811 62.8294 96.2204L62.3193 59.4391C62.2736 56.1246 62.4852 52.8128 62.9532 49.5317L64.2166 40.6744Z" fill="#F24444"/>
<path d="M4.51573 43.4691C4.51573 43.4691 0.861356 45.9899 0.255966 47.2006C-0.349072 48.4105 0.255966 49.5203 0.659325 49.4202C1.06295 49.3184 5.80325 47.3016 5.80325 47.3016L4.51573 43.4691Z" fill="black"/>
<path d="M64.9339 43.4691C64.9339 43.4691 68.5882 45.9899 69.194 47.2006C69.799 48.4105 69.194 49.5203 68.7901 49.4202C68.3871 49.3184 63.6467 47.3016 63.6467 47.3016L64.9339 43.4691Z" fill="black"/>
<path d="M19.4076 4.63072C19.6346 4.08284 19.6947 3.48668 19.6202 2.90106C15.5447 4.53853 12.0954 7.39905 9.7251 11.0322C11.2153 9.78107 12.8829 8.74153 14.6687 7.96888C16.4916 7.17956 18.6465 6.46662 19.4076 4.63072Z" fill="#505797"/>
<path d="M50.0432 4.63072C49.8158 4.08284 49.7561 3.48668 49.8307 2.90106C53.9056 4.53853 57.3553 7.39905 59.725 11.0322C58.235 9.78107 56.5677 8.74153 54.7818 7.96888C52.9582 7.17956 50.8035 6.46662 50.0432 4.63072Z" fill="#505797"/>
<path d="M12.8078 80.3171C12.7132 72.6715 12.5239 65.6668 12.5239 63.0925C12.5239 55.3775 6.7749 48.1146 6.7749 48.1146L6.7749 78.0343C8.74806 78.8851 10.7805 79.5954 12.8078 80.3171Z" fill="#0F1942"/>
<path d="M12.6463 99.3328C12.8864 94.4801 12.8908 87.7932 12.8205 81.4189C10.7843 80.8561 8.76386 80.2441 6.7749 79.5286L6.7749 102.221C8.76966 101.334 10.7318 100.378 12.6463 99.3328Z" fill="#0F1942"/>
<path d="M6.7749 103.883L6.7749 111.806C6.7749 111.806 11.7676 111.654 12.5239 101.367C12.5444 101.087 12.5636 100.794 12.5818 100.494C10.677 101.684 8.78985 102.904 6.7749 103.883Z" fill="#0F1942"/>
<path d="M56.6421 80.3171C56.7369 72.6715 56.9257 65.6668 56.9257 63.0925C56.9257 55.3775 62.6749 48.1146 62.6749 48.1146V78.0343C60.702 78.8851 58.6694 79.5954 56.6421 80.3171Z" fill="#0F1942"/>
<path d="M56.8035 99.3328C56.5629 94.4801 56.5585 87.7932 56.6288 81.4189C58.6649 80.8561 60.6861 80.2441 62.6748 79.5286V102.221C60.6799 101.334 58.7176 100.378 56.8035 99.3328Z" fill="#0F1942"/>
<path d="M62.6748 103.883V111.806C62.6748 111.806 57.6825 111.654 56.9256 101.367C56.9054 101.087 56.8861 100.794 56.8677 100.494C58.773 101.684 60.6598 102.904 62.6748 103.883Z" fill="#0F1942"/>
<path d="M54.051 105.906C54.051 105.906 45.9584 109.991 34.7248 109.991C23.4918 109.991 15.3983 105.906 15.3983 105.906C13.8175 110.437 13.2077 116.509 12.9827 119.777C12.8829 121.228 13.6635 122.596 14.9671 123.241C18.3571 124.918 25.5805 127.842 34.7248 127.842C43.8696 127.842 51.0921 124.918 54.483 123.241C55.786 122.596 56.5665 121.228 56.4664 119.777C56.2425 116.509 55.6323 110.437 54.051 105.906ZM59.5755 43.0898C59.2313 45.5684 58.0916 50.5361 54.3258 55.611C53.8025 56.316 52.9438 56.6892 52.0693 56.6137C49.164 56.3652 42.0668 55.8305 34.7248 55.8305C27.3824 55.8305 20.2856 56.3652 17.3803 56.6137C16.5057 56.6892 15.6469 56.316 15.1242 55.611C11.358 50.5361 10.2187 45.5684 9.87362 43.0898C9.72717 42.0353 10.2331 40.9958 11.1663 40.4856C13.753 39.0712 20.3178 36.618 34.7248 36.618C49.1315 36.618 55.6964 39.0712 58.2839 40.4856C59.2172 40.9958 59.7221 42.0353 59.5755 43.0898Z" fill="#0F1942"/>
<path d="M13.8587 141.91C11.9429 141.329 10.1666 140.292 8.7175 138.91C8.33987 138.55 7.97365 138.161 7.50338 137.935C7.17861 137.78 6.78623 137.727 6.44775 137.823C8.47851 140.6 11.5906 142.532 15.1651 143.005L15.1689 142.969C15.1497 142.367 14.4352 142.086 13.8587 141.91Z" fill="#F24444"/>
<path d="M55.591 141.91C57.5068 141.329 59.283 140.292 60.7326 138.91C61.1102 138.55 61.4754 138.161 61.9461 137.935C62.2709 137.78 62.6634 137.727 63.0023 137.823C60.9715 140.6 57.8589 142.532 54.2845 143.005L54.281 142.969C54.3003 142.367 55.0142 142.086 55.591 141.91Z" fill="#F24444"/>
</svg>
