<svg width="72" height="149" viewBox="0 0 72 149" fill="none" xmlns="http://www.w3.org/2000/svg">
<mask id="path-1-outside-1_56_60" maskUnits="userSpaceOnUse" x="2.7959" y="-0.959961" width="66" height="149" fill="black">
<rect fill="white" x="2.7959" y="-0.959961" width="66" height="149"/>
<path d="M4.47398 39.7437C4.02225 36.5776 3.7959 33.3825 3.7959 30.1848L3.7959 23.3794C3.7959 11.0198 13.8155 1.00005 26.1753 1.00005H35.725H45.2748C57.6343 1.00005 67.6542 11.0198 67.6542 23.3794V30.1848C67.6542 33.3825 67.4277 36.5776 66.9764 39.7437L65.6383 49.1304C65.1422 52.6073 64.9175 56.1167 64.9666 59.6287L65.5066 98.6041C65.5382 100.895 65.8991 103.169 66.5795 105.356C67.2916 107.649 67.6542 110.037 67.6542 112.438V129.735C67.6542 139.292 59.9066 147.04 50.3495 147.04H35.725H21.101C11.5437 147.04 3.7959 139.292 3.7959 129.735L3.7959 112.438C3.7959 110.037 4.15807 107.649 4.87076 105.356C5.55051 103.169 5.91173 100.895 5.94325 98.6041L6.4834 59.6287C6.53248 56.1167 6.3078 52.6073 5.81225 49.1304L4.47398 39.7437Z"/>
</mask>
<path d="M66.9764 39.7437L67.9664 39.8848V39.8848L66.9764 39.7437ZM65.6383 49.1304L66.6283 49.2715L66.6283 49.2716L65.6383 49.1304ZM64.9666 59.6287L65.9665 59.6147L65.9665 59.6148L64.9666 59.6287ZM65.5066 98.6041L66.5065 98.5902V98.5903L65.5066 98.6041ZM66.5795 105.356L67.5344 105.059L67.5346 105.059L66.5795 105.356ZM4.87076 105.356L3.91581 105.059L3.91582 105.059L4.87076 105.356ZM5.94325 98.6041L4.94335 98.5903L4.94335 98.5902L5.94325 98.6041ZM6.4834 59.6287L5.4835 59.6148L5.4835 59.6147L6.4834 59.6287ZM5.81225 49.1304L6.80224 48.9892L6.80225 48.9893L5.81225 49.1304ZM3.48401 39.8849C3.02558 36.672 2.7959 33.4297 2.7959 30.1848H4.7959C4.7959 33.3354 5.01891 36.4832 5.46396 39.6024L3.48401 39.8849ZM2.7959 30.1848L2.7959 23.3794H4.7959V30.1848H2.7959ZM2.7959 23.3794C2.7959 10.4675 13.2632 4.57764e-05 26.1753 4.57764e-05V2.00005C14.3678 2.00005 4.7959 11.5721 4.7959 23.3794H2.7959ZM26.1753 4.57764e-05H35.725V2.00005H26.1753V4.57764e-05ZM35.725 4.57764e-05H45.2748L45.2748 2.00005H35.725V4.57764e-05ZM45.2748 4.57764e-05C58.1866 4.57764e-05 68.6542 10.4675 68.6542 23.3794H66.6542C66.6542 11.5721 57.0821 2.00005 45.2748 2.00005L45.2748 4.57764e-05ZM68.6542 23.3794V30.1848H66.6542V23.3794H68.6542ZM68.6542 30.1848C68.6542 33.4297 68.4244 36.6719 67.9664 39.8848L65.9864 39.6025C66.431 36.4832 66.6542 33.3353 66.6542 30.1848H68.6542ZM67.9664 39.8848L66.6283 49.2715L64.6483 48.9893L65.9864 39.6025L67.9664 39.8848ZM66.6283 49.2716C66.1395 52.6972 65.9181 56.1546 65.9665 59.6147L63.9667 59.6427C63.9168 56.0787 64.1449 52.5174 64.6483 48.9891L66.6283 49.2716ZM65.9665 59.6148L66.5065 98.5902L64.5067 98.6179L63.9667 59.6425L65.9665 59.6148ZM66.5065 98.5903C66.5368 100.785 66.8826 102.964 67.5344 105.059L65.6247 105.653C64.9156 103.374 64.5396 101.004 64.5067 98.6179L66.5065 98.5903ZM67.5346 105.059C68.2764 107.449 68.6542 109.936 68.6542 112.438H66.6542C66.6542 110.137 66.3068 107.85 65.6245 105.652L67.5346 105.059ZM68.6542 112.438V129.735H66.6542V112.438H68.6542ZM68.6542 129.735C68.6542 139.844 60.4589 148.04 50.3495 148.04V146.04C59.3543 146.04 66.6542 138.739 66.6542 129.735H68.6542ZM50.3495 148.04H35.725V146.04H50.3495V148.04ZM35.725 148.04H21.101V146.04H35.725V148.04ZM21.101 148.04C10.9914 148.04 2.7959 139.844 2.7959 129.735H4.7959C4.7959 138.739 12.0959 146.04 21.101 146.04V148.04ZM2.7959 129.735L2.7959 112.438H4.7959L4.7959 129.735H2.7959ZM2.7959 112.438C2.7959 109.936 3.17324 107.449 3.91581 105.059L5.82571 105.653C5.1429 107.85 4.7959 110.137 4.7959 112.438H2.7959ZM3.91582 105.059C4.56707 102.964 4.91315 100.785 4.94335 98.5903L6.94316 98.6178C6.91032 101.005 6.53396 103.374 5.8257 105.653L3.91582 105.059ZM4.94335 98.5902L5.4835 59.6148L7.48331 59.6425L6.94316 98.6179L4.94335 98.5902ZM5.4835 59.6147C5.53186 56.1546 5.3105 52.6971 4.82226 49.2715L6.80225 48.9893C7.30511 52.5174 7.53311 56.0787 7.48331 59.6426L5.4835 59.6147ZM4.82226 49.2715L3.484 39.8848L5.46397 39.6025L6.80224 48.9892L4.82226 49.2715Z" fill="white" mask="url(#path-1-outside-1_56_60)"/>
<mask id="path-3-outside-2_56_60" maskUnits="userSpaceOnUse" x="4.59351" y="3.9281" width="63" height="140" fill="black">
<rect fill="white" x="4.59351" y="3.9281" width="63" height="140"/>
<path d="M65.2166 41.6743C65.6425 38.6856 65.8567 35.6714 65.8567 32.6528V26.2311C65.8567 14.5669 56.4014 5.11163 44.7368 5.11163H35.7248H26.7129C15.049 5.11163 5.59351 14.5669 5.59351 26.2311L5.59351 32.6528C5.59351 35.6714 5.80721 38.6856 6.23349 41.6743L7.49634 50.5316C7.96414 53.8127 8.17583 57.1245 8.12982 60.439L7.62014 97.2203C7.59037 99.381 7.24944 101.528 6.60805 103.591C5.93549 105.755 5.59351 108.008 5.59351 110.274L5.59351 126.597C5.59351 135.617 12.9051 142.928 21.9239 142.928H35.7248H49.5257C58.5446 142.928 65.8567 135.617 65.8567 126.597V110.274C65.8567 108.008 65.5143 105.755 64.8417 103.591C64.1999 101.528 63.8592 99.381 63.8294 97.2203L63.3193 60.439C63.2736 57.1245 63.4852 53.8127 63.9532 50.5316L65.2166 41.6743Z"/>
</mask>
<path d="M6.23349 41.6743L7.22347 41.5331L7.22348 41.5332L6.23349 41.6743ZM7.49634 50.5316L8.48632 50.3904H8.48632L7.49634 50.5316ZM8.12982 60.439L7.12992 60.4251L7.12992 60.4251L8.12982 60.439ZM7.62014 97.2203L6.62023 97.2065L6.62023 97.2064L7.62014 97.2203ZM6.60805 103.591L5.6531 103.294L5.65312 103.294L6.60805 103.591ZM64.8417 103.591L65.7966 103.294L65.7967 103.294L64.8417 103.591ZM63.8294 97.2203L64.8293 97.2064L64.8293 97.2064L63.8294 97.2203ZM63.3193 60.439L62.3194 60.4528V60.4528L63.3193 60.439ZM63.9532 50.5316L62.9632 50.3904L62.9632 50.3904L63.9532 50.5316ZM64.2266 41.5332C64.6458 38.5911 64.8567 35.6241 64.8567 32.6528H66.8567C66.8567 35.7187 66.6391 38.7801 66.2066 41.8154L64.2266 41.5332ZM64.8567 32.6528V26.2311H66.8567V32.6528H64.8567ZM64.8567 26.2311C64.8567 15.1192 55.8491 6.11163 44.7368 6.11163V4.11163C56.9537 4.11163 66.8567 14.0146 66.8567 26.2311H64.8567ZM44.7368 6.11163H35.7248V4.11163H44.7368V6.11163ZM35.7248 6.11163H26.7129V4.11163H35.7248V6.11163ZM26.7129 6.11163C15.6013 6.11163 6.59351 15.1192 6.59351 26.2311H4.59351C4.59351 14.0146 14.4967 4.11163 26.7129 4.11163V6.11163ZM6.59351 26.2311L6.59351 32.6528H4.59351L4.59351 26.2311H6.59351ZM6.59351 32.6528C6.59351 35.6242 6.80387 38.5912 7.22347 41.5331L5.24351 41.8155C4.81056 38.78 4.59351 35.7186 4.59351 32.6528H6.59351ZM7.22348 41.5332L8.48632 50.3904L6.50635 50.6727L5.2435 41.8155L7.22348 41.5332ZM8.48632 50.3904C8.96145 53.7229 9.17645 57.0866 9.12973 60.4529L7.12992 60.4251C7.17521 57.1625 6.96683 53.9025 6.50635 50.6727L8.48632 50.3904ZM9.12973 60.4528L8.62004 97.2341L6.62023 97.2064L7.12992 60.4251L9.12973 60.4528ZM8.62004 97.234C8.58896 99.4908 8.23289 101.733 7.56298 103.888L5.65312 103.294C6.26599 101.323 6.59179 99.2713 6.62023 97.2065L8.62004 97.234ZM7.563 103.888C6.9203 105.956 6.59351 108.109 6.59351 110.274H4.59351C4.59351 107.908 4.95068 105.555 5.6531 103.294L7.563 103.888ZM6.59351 110.274L6.59351 126.597H4.59351L4.59351 110.274H6.59351ZM6.59351 126.597C6.59351 135.065 13.4574 141.928 21.9239 141.928V143.928C12.3528 143.928 4.59351 136.169 4.59351 126.597H6.59351ZM21.9239 141.928H35.7248V143.928H21.9239V141.928ZM35.7248 141.928H49.5257V143.928H35.7248V141.928ZM49.5257 141.928C57.9924 141.928 64.8567 135.065 64.8567 126.597H66.8567C66.8567 136.169 59.0969 143.928 49.5257 143.928V141.928ZM64.8567 126.597V110.274H66.8567V126.597H64.8567ZM64.8567 110.274C64.8567 108.109 64.5295 105.956 63.8868 103.888L65.7967 103.294C66.4991 105.555 66.8567 107.908 66.8567 110.274H64.8567ZM63.8869 103.888C63.2164 101.733 62.8606 99.4907 62.8295 97.2341L64.8293 97.2064C64.8578 99.2713 65.1834 101.323 65.7966 103.294L63.8869 103.888ZM62.8295 97.2341L62.3194 60.4528L64.3192 60.4251L64.8293 97.2064L62.8295 97.2341ZM62.3194 60.4528C62.273 57.0866 62.4879 53.7229 62.9632 50.3904L64.9432 50.6728C64.4825 53.9025 64.2742 57.1625 64.3192 60.4252L62.3194 60.4528ZM62.9632 50.3904L64.2267 41.5331L66.2066 41.8155L64.9432 50.6728L62.9632 50.3904Z" fill="white" mask="url(#path-3-outside-2_56_60)"/>
<mask id="path-5-outside-3_56_60" maskUnits="userSpaceOnUse" x="0" y="43.4265" width="9" height="9" fill="black">
<rect fill="white" y="43.4265" width="9" height="9"/>
<path d="M5.51573 44.4691C5.51573 44.4691 1.86136 46.9899 1.25597 48.2007C0.650928 49.4105 1.25597 50.5203 1.65933 50.4203C2.06295 50.3184 6.80325 48.3016 6.80325 48.3016L5.51573 44.4691Z"/>
</mask>
<path d="M1.25597 48.2007L2.15039 48.6479L2.15037 48.6479L1.25597 48.2007ZM1.65933 50.4203L1.90399 51.3899L1.90017 51.3908L1.65933 50.4203ZM6.80325 48.3016L7.75119 47.9832L8.04568 48.8598L7.19474 49.2218L6.80325 48.3016ZM5.51573 44.4691C6.08354 45.2923 6.08359 45.2923 6.08362 45.2923C6.08361 45.2923 6.08363 45.2923 6.08361 45.2923C6.08358 45.2923 6.08349 45.2923 6.08335 45.2924C6.08307 45.2926 6.08257 45.293 6.08185 45.2935C6.08041 45.2945 6.07811 45.2961 6.07498 45.2982C6.06871 45.3026 6.0591 45.3093 6.04635 45.3181C6.02083 45.3359 5.98277 45.3626 5.93379 45.3971C5.83579 45.4662 5.69427 45.5668 5.52224 45.6915C5.17749 45.9415 4.71343 46.2858 4.23277 46.6655C3.74969 47.0472 3.2625 47.4546 2.86592 47.8316C2.44027 48.2362 2.21607 48.5165 2.15039 48.6479L0.361541 47.7534C0.598554 47.2794 1.05818 46.7906 1.48799 46.382C1.94687 45.9458 2.48678 45.4961 2.99297 45.0962C3.50158 44.6944 3.98895 44.3329 4.34831 44.0723C4.52834 43.9418 4.67705 43.836 4.78126 43.7626C4.83339 43.7258 4.87443 43.6971 4.90274 43.6774C4.9169 43.6675 4.92788 43.6599 4.93548 43.6546C4.93928 43.652 4.94223 43.6499 4.94432 43.6485C4.94536 43.6478 4.94618 43.6472 4.94678 43.6468C4.94709 43.6466 4.94733 43.6464 4.94752 43.6463C4.94762 43.6462 4.94772 43.6461 4.94777 43.6461C4.94785 43.646 4.94793 43.646 5.51573 44.4691ZM2.15037 48.6479C1.9648 49.019 1.98292 49.3347 2.03656 49.5118C2.06586 49.6086 2.09341 49.6257 2.06418 49.5951C2.06403 49.5949 1.82926 49.3478 1.41848 49.4497L1.90017 51.3908C1.28771 51.5428 0.82605 51.1944 0.617917 50.9765C0.380709 50.7282 0.219179 50.411 0.122432 50.0916C-0.0760275 49.4363 -0.0579035 48.5922 0.361567 47.7534L2.15037 48.6479ZM1.41466 49.4506C1.39319 49.4561 1.44732 49.4399 1.63637 49.367C1.79665 49.3052 2.00875 49.2205 2.25729 49.1197C2.75345 48.9183 3.37994 48.6583 3.99668 48.4002C4.61282 48.1425 5.21667 47.8877 5.66667 47.6974C5.89162 47.6022 6.078 47.5232 6.2081 47.468C6.27315 47.4404 6.32412 47.4187 6.35881 47.404C6.37615 47.3966 6.38941 47.391 6.39833 47.3872C6.40279 47.3853 6.40616 47.3838 6.40841 47.3829C6.40954 47.3824 6.41038 47.382 6.41094 47.3818C6.41122 47.3817 6.41143 47.3816 6.41156 47.3815C6.41163 47.3815 6.41168 47.3815 6.41172 47.3815C6.41175 47.3815 6.41176 47.3815 6.80325 48.3016C7.19474 49.2218 7.19472 49.2218 7.19468 49.2218C7.19464 49.2219 7.19458 49.2219 7.19451 49.2219C7.19435 49.222 7.19413 49.2221 7.19384 49.2222C7.19325 49.2225 7.19237 49.2228 7.19122 49.2233C7.18891 49.2243 7.18547 49.2258 7.18095 49.2277C7.1719 49.2315 7.1585 49.2372 7.14103 49.2447C7.10608 49.2595 7.05481 49.2813 6.98946 49.309C6.85875 49.3645 6.67164 49.4438 6.44588 49.5393C5.99445 49.7303 5.388 49.9861 4.76861 50.2453C4.14982 50.5042 3.51556 50.7674 3.0094 50.9728C2.75677 51.0754 2.53231 51.165 2.3561 51.233C2.20866 51.2898 2.02637 51.359 1.90399 51.3899L1.41466 49.4506ZM5.85531 48.6201L4.5678 44.7876L6.46367 44.1507L7.75119 47.9832L5.85531 48.6201Z" fill="white" mask="url(#path-5-outside-3_56_60)"/>
<mask id="path-7-outside-4_56_60" maskUnits="userSpaceOnUse" x="62.6467" y="43.4265" width="9" height="9" fill="black">
<rect fill="white" x="62.6467" y="43.4265" width="9" height="9"/>
<path d="M65.9339 44.4691C65.9339 44.4691 69.5882 46.9899 70.194 48.2007C70.799 49.4105 70.194 50.5203 69.7901 50.4203C69.3871 50.3184 64.6467 48.3016 64.6467 48.3016L65.9339 44.4691Z"/>
</mask>
<path d="M70.194 48.2007L71.0883 47.7532L71.0884 47.7534L70.194 48.2007ZM69.7901 50.4203L69.5496 51.3909L69.5451 51.3898L69.7901 50.4203ZM64.6467 48.3016L64.2552 49.2218L63.4044 48.8598L63.6988 47.9833L64.6467 48.3016ZM65.9339 44.4691C66.5017 43.646 66.5018 43.646 66.5019 43.6461C66.5019 43.6461 66.502 43.6462 66.5021 43.6463C66.5023 43.6464 66.5026 43.6466 66.5029 43.6468C66.5035 43.6472 66.5043 43.6478 66.5053 43.6485C66.5074 43.6499 66.5104 43.652 66.5142 43.6546C66.5218 43.6599 66.5327 43.6675 66.5469 43.6774C66.5752 43.6971 66.6162 43.7258 66.6684 43.7626C66.7726 43.836 66.9213 43.9418 67.1013 44.0723C67.4607 44.3329 67.948 44.6944 68.4567 45.0962C68.9629 45.4961 69.5028 45.9458 69.9617 46.382C70.3916 46.7906 70.8512 47.2793 71.0883 47.7532L69.2997 48.6481C69.2339 48.5166 69.0096 48.2363 68.5839 47.8317C68.1872 47.4547 67.7 47.0472 67.2169 46.6656C66.7362 46.2858 66.2721 45.9415 65.9274 45.6915C65.7553 45.5668 65.6138 45.4662 65.5158 45.3971C65.4669 45.3625 65.4288 45.3359 65.4033 45.3181C65.3905 45.3093 65.3809 45.3026 65.3746 45.2982C65.3715 45.2961 65.3692 45.2945 65.3678 45.2935C65.3671 45.293 65.3666 45.2926 65.3663 45.2924C65.3661 45.2923 65.366 45.2923 65.366 45.2923C65.366 45.2922 65.366 45.2923 65.366 45.2923C65.366 45.2923 65.3661 45.2923 65.9339 44.4691ZM71.0884 47.7534C71.5078 48.5922 71.526 49.4364 71.3274 50.0917C71.2306 50.4112 71.069 50.7284 70.8316 50.9768C70.6231 51.1949 70.1616 51.5426 69.5496 51.3909L70.0307 49.4496C69.6206 49.348 69.3862 49.5945 69.3858 49.5949C69.3565 49.6255 69.384 49.6084 69.4133 49.5117C69.467 49.3347 69.4851 49.019 69.2996 48.6479L71.0884 47.7534ZM69.5451 51.3898C69.423 51.3589 69.2408 51.2898 69.0934 51.2329C68.9173 51.165 68.6929 51.0754 68.4403 50.9728C67.9343 50.7674 67.3001 50.5041 66.6813 50.2453C66.062 49.9861 65.4555 49.7303 65.0041 49.5393C64.7783 49.4438 64.5912 49.3645 64.4605 49.309C64.3952 49.2813 64.3439 49.2595 64.309 49.2447C64.2915 49.2372 64.2781 49.2315 64.269 49.2277C64.2645 49.2258 64.2611 49.2243 64.2588 49.2233C64.2576 49.2228 64.2567 49.2225 64.2562 49.2222C64.2559 49.2221 64.2556 49.222 64.2555 49.2219C64.2554 49.2219 64.2553 49.2219 64.2553 49.2218C64.2553 49.2218 64.2552 49.2218 64.6467 48.3016C65.0382 47.3814 65.0382 47.3815 65.0383 47.3815C65.0383 47.3815 65.0383 47.3815 65.0384 47.3815C65.0385 47.3816 65.0388 47.3817 65.039 47.3818C65.0396 47.382 65.0404 47.3824 65.0416 47.3829C65.0438 47.3838 65.0472 47.3853 65.0516 47.3872C65.0606 47.391 65.0738 47.3966 65.0912 47.404C65.1259 47.4187 65.1768 47.4404 65.2419 47.468C65.372 47.5232 65.5584 47.6022 65.7833 47.6974C66.2333 47.8877 66.8372 48.1425 67.4533 48.4002C68.07 48.6583 68.6965 48.9183 69.1926 49.1197C69.4411 49.2205 69.6531 49.3052 69.8134 49.367C70.0024 49.4399 70.0565 49.4561 70.0351 49.4507L69.5451 51.3898ZM63.6988 47.9833L64.9859 44.1508L66.8819 44.7875L65.5947 48.62L63.6988 47.9833Z" fill="white" mask="url(#path-7-outside-4_56_60)"/>
<mask id="path-9-outside-5_56_60" maskUnits="userSpaceOnUse" x="9.72485" y="2.03217" width="12" height="11" fill="black">
<rect fill="white" x="9.72485" y="2.03217" width="12" height="11"/>
<path d="M20.4073 5.63066C20.6344 5.08278 20.6944 4.48662 20.62 3.901C16.5444 5.53847 13.0951 8.39899 10.7249 12.0322C12.215 10.781 13.8826 9.74147 15.6685 8.96882C17.4913 8.1795 19.6463 7.46656 20.4073 5.63066Z"/>
</mask>
<path d="M20.62 3.901L20.2472 2.97309L21.4487 2.49035L21.612 3.77487L20.62 3.901ZM10.7249 12.0322L11.3679 12.798L9.88733 11.4858L10.7249 12.0322ZM15.6685 8.96882L16.0659 9.88648L16.0656 9.88661L15.6685 8.96882ZM19.4835 5.2478C19.6355 4.88112 19.6834 4.46331 19.628 4.02712L21.612 3.77487C21.7054 4.50993 21.6333 5.28444 21.3311 6.01351L19.4835 5.2478ZM20.9928 4.8289C17.1097 6.38904 13.8218 9.1153 11.5624 12.5786L9.88733 11.4858C12.3685 7.68268 15.9791 4.6879 20.2472 2.97309L20.9928 4.8289ZM10.0818 11.2663C11.6441 9.95465 13.3941 8.86323 15.2714 8.05104L16.0656 9.88661C14.3711 10.6197 12.786 11.6074 11.3679 12.798L10.0818 11.2663ZM15.2711 8.05116C16.2453 7.62934 17.138 7.29511 17.9294 6.83005C18.6965 6.37927 19.2197 5.88406 19.4835 5.24771L21.3311 6.0136C20.8338 7.21315 19.8991 7.99237 18.9427 8.55436C18.0107 9.10208 16.9146 9.51899 16.0659 9.88648L15.2711 8.05116Z" fill="white" mask="url(#path-9-outside-5_56_60)"/>
<mask id="path-11-outside-6_56_60" maskUnits="userSpaceOnUse" x="49.8" y="2.03217" width="12" height="11" fill="black">
<rect fill="white" x="49.8" y="2.03217" width="12" height="11"/>
<path d="M51.0429 5.63066C50.8155 5.08278 50.7558 4.48662 50.8305 3.901C54.9053 5.53847 58.355 8.39899 60.7248 12.0322C59.2348 10.781 57.5675 9.74147 55.7816 8.96882C53.9579 8.1795 51.8033 7.46656 51.0429 5.63066Z"/>
</mask>
<path d="M50.8305 3.901L49.8385 3.77458L50.0021 2.49041L51.2033 2.97311L50.8305 3.901ZM60.7248 12.0322L61.5624 11.4859L60.0817 12.798L60.7248 12.0322ZM55.7816 8.96882L55.3845 9.88661L55.3844 9.88655L55.7816 8.96882ZM50.1193 6.01401C49.8165 5.2843 49.7448 4.5094 49.8385 3.77458L51.8224 4.02741C51.7668 4.46384 51.8146 4.88127 51.9665 5.2473L50.1193 6.01401ZM51.2033 2.97311C55.4706 4.6879 59.0817 7.68266 61.5624 11.4859L59.8872 12.5785C57.6283 9.11532 54.34 6.38904 50.4576 4.82888L51.2033 2.97311ZM60.0817 12.798C58.6638 11.6073 57.0789 10.6197 55.3845 9.88661L56.1787 8.05104C58.056 8.86325 59.8058 9.95469 61.3678 11.2664L60.0817 12.798ZM55.3844 9.88655C54.5352 9.51899 53.439 9.10213 52.5069 8.55435C51.5505 7.99231 50.6159 7.21301 50.119 6.0133L51.9668 5.24801C52.2303 5.88421 52.7532 6.37932 53.5202 6.83007C54.3114 7.29507 55.2044 7.62933 56.1788 8.0511L55.3844 9.88655Z" fill="white" mask="url(#path-11-outside-6_56_60)"/>
<path d="M14.3078 81.3109L14.3167 82.029L13.6401 81.7882C13.486 81.7333 13.3318 81.6785 13.1774 81.6236C11.3061 80.9584 9.41657 80.2867 7.57693 79.4935L7.2749 79.3632V79.0343L7.2749 49.1146V47.6774L8.16695 48.8043L7.7749 49.1146C8.16695 48.8043 8.16705 48.8044 8.16717 48.8046L8.16752 48.805L8.16862 48.8064L8.17238 48.8112L8.18598 48.8286C8.19772 48.8437 8.21474 48.8657 8.23669 48.8944C8.28057 48.9518 8.34417 49.0361 8.42467 49.1455C8.58564 49.3643 8.81431 49.6839 9.08808 50.091C9.63537 50.9048 10.3644 52.0704 11.0935 53.4808C12.5472 56.2926 14.0239 60.1202 14.0239 64.0925C14.0239 65.3507 14.0691 67.6636 14.1264 70.5948C14.1862 73.6577 14.2593 77.3957 14.3078 81.3109Z" stroke="white"/>
<path d="M14.1457 100.358L14.1318 100.637L13.8858 100.772C11.9579 101.824 9.98345 102.786 7.97818 103.678L7.2749 103.991V103.221L7.2749 80.5286V79.8173L7.94417 80.0581C9.91743 80.768 11.9249 81.3763 13.9537 81.937L14.3164 82.0372L14.3205 82.4134C14.3908 88.7882 14.3866 95.4883 14.1457 100.358Z" stroke="white"/>
<mask id="path-15-outside-7_56_60" maskUnits="userSpaceOnUse" x="6.7749" y="98.8058" width="8" height="16" fill="black">
<rect fill="white" x="6.7749" y="98.8058" width="8" height="16"/>
<path d="M7.7749 104.884L7.7749 112.806C7.7749 112.806 12.7676 112.654 13.5239 102.367C13.5444 102.087 13.5636 101.794 13.5818 101.494C11.677 102.684 9.78985 103.905 7.7749 104.884Z"/>
</mask>
<path d="M7.7749 112.806L7.80531 113.805L6.7749 113.837V112.806H7.7749ZM13.5239 102.367L14.5212 102.44L14.5212 102.441L13.5239 102.367ZM13.5818 101.494L13.0521 100.646L14.6975 99.6186L14.58 101.555L13.5818 101.494ZM8.7749 104.884V112.806H6.7749L6.7749 104.884H8.7749ZM7.7749 112.806C7.74449 111.806 7.74351 111.806 7.74254 111.806C7.74224 111.806 7.74129 111.806 7.7407 111.806C7.7395 111.806 7.73838 111.806 7.73733 111.806C7.73522 111.807 7.7334 111.807 7.73186 111.807C7.72876 111.807 7.72678 111.807 7.72587 111.807C7.72406 111.807 7.72653 111.807 7.73303 111.806C7.74603 111.805 7.775 111.802 7.81787 111.794C7.90364 111.779 8.04441 111.747 8.22427 111.682C8.5808 111.552 9.1028 111.285 9.66369 110.732C10.7793 109.632 12.1596 107.285 12.5266 102.294L14.5212 102.441C14.1318 107.736 12.6376 110.608 11.0678 112.156C10.286 112.927 9.5126 113.341 8.90937 113.561C8.60936 113.67 8.35416 113.731 8.16395 113.764C8.06882 113.781 7.98978 113.791 7.92929 113.797C7.89903 113.8 7.87337 113.802 7.85262 113.803C7.84224 113.804 7.83309 113.804 7.82519 113.805C7.82124 113.805 7.81761 113.805 7.8143 113.805C7.81264 113.805 7.81106 113.805 7.80956 113.805C7.80882 113.805 7.80775 113.805 7.80738 113.805C7.80634 113.805 7.80531 113.805 7.7749 112.806ZM12.5266 102.294C12.5467 102.019 12.5657 101.73 12.5837 101.434L14.58 101.555C14.5616 101.857 14.5421 102.155 14.5212 102.44L12.5266 102.294ZM14.1115 102.343C12.2285 103.519 10.2866 104.775 8.21191 105.783L7.3379 103.984C9.29311 103.034 11.1255 101.85 13.0521 100.646L14.1115 102.343Z" fill="white" mask="url(#path-15-outside-7_56_60)"/>
<path d="M57.8098 81.7882L57.1332 82.029L57.1421 81.3109C57.1906 77.402 57.2634 73.6696 57.3231 70.6094C57.3805 67.6712 57.4257 65.3527 57.4257 64.0925C57.4257 60.1202 58.9025 56.2926 60.3561 53.4808C61.0853 52.0704 61.8144 50.9048 62.3617 50.091C62.6355 49.6839 62.8642 49.3643 63.0251 49.1455C63.1056 49.0361 63.1692 48.9518 63.2131 48.8944C63.2351 48.8657 63.2521 48.8437 63.2638 48.8286L63.2774 48.8112L63.2812 48.8064L63.2823 48.805L63.2827 48.8046C63.2828 48.8044 63.2829 48.8043 63.6749 49.1146L63.2829 48.8043L64.1749 47.6774V49.1146V79.0343V79.3632L63.8729 79.4935C62.034 80.2865 60.1449 80.958 58.2741 81.6231C58.1192 81.6781 57.9644 81.7331 57.8098 81.7882Z" stroke="white"/>
<path d="M57.5639 100.772L57.318 100.637L57.3041 100.358C57.0627 95.4884 57.0586 88.7882 57.1288 82.4134L57.1329 82.0372L57.4956 81.937C59.5242 81.3762 61.5325 80.768 63.5055 80.0581L64.1748 79.8173V80.5286V103.221V103.991L63.4715 103.678C61.4661 102.786 59.4915 101.824 57.5639 100.772Z" stroke="white"/>
<mask id="path-19-outside-8_56_60" maskUnits="userSpaceOnUse" x="55.8677" y="98.8058" width="9" height="16" fill="black">
<rect fill="white" x="55.8677" y="98.8058" width="9" height="16"/>
<path d="M63.6748 104.884V112.806C63.6748 112.806 58.6825 112.654 57.9256 102.367C57.9054 102.087 57.8861 101.794 57.8677 101.494C59.773 102.684 61.6598 103.905 63.6748 104.884Z"/>
</mask>
<path d="M63.6748 112.806H64.6748V113.837L63.6444 113.805L63.6748 112.806ZM57.9256 102.367L56.9283 102.441L56.9282 102.439L57.9256 102.367ZM57.8677 101.494L56.8696 101.556L56.7502 99.6178L58.3973 100.646L57.8677 101.494ZM64.6748 104.884V112.806H62.6748V104.884H64.6748ZM63.6748 112.806C63.6444 113.805 63.6434 113.805 63.6424 113.805C63.642 113.805 63.6409 113.805 63.6402 113.805C63.6387 113.805 63.6371 113.805 63.6354 113.805C63.6321 113.805 63.6285 113.805 63.6246 113.805C63.6167 113.804 63.6075 113.804 63.5971 113.803C63.5764 113.802 63.5507 113.8 63.5205 113.797C63.46 113.791 63.3809 113.781 63.2858 113.764C63.0956 113.731 62.8404 113.67 62.5404 113.561C61.9372 113.341 61.1638 112.927 60.382 112.156C58.8122 110.608 57.318 107.736 56.9283 102.441L58.9229 102.294C59.2901 107.285 60.6705 109.632 61.7861 110.732C62.347 111.285 62.869 111.552 63.2255 111.682C63.4054 111.747 63.5461 111.779 63.6319 111.794C63.6748 111.802 63.7037 111.805 63.7167 111.806C63.7232 111.807 63.7257 111.807 63.7239 111.807C63.723 111.807 63.721 111.807 63.7179 111.807C63.7163 111.807 63.7145 111.807 63.7124 111.806C63.7114 111.806 63.7102 111.806 63.7091 111.806C63.7085 111.806 63.7075 111.806 63.7072 111.806C63.7062 111.806 63.7053 111.806 63.6748 112.806ZM56.9282 102.439C56.9077 102.155 56.8882 101.858 56.8696 101.556L58.8658 101.433C58.8841 101.73 58.9031 102.019 58.923 102.295L56.9282 102.439ZM58.3973 100.646C60.3245 101.85 62.1565 103.034 64.1118 103.984L63.2379 105.783C61.1631 104.775 59.2214 103.519 57.338 102.343L58.3973 100.646Z" fill="white" mask="url(#path-19-outside-8_56_60)"/>
<mask id="path-21-outside-9_56_60" maskUnits="userSpaceOnUse" x="9.84863" y="35.8418" width="52" height="94" fill="black">
<rect fill="white" x="9.84863" y="35.8418" width="52" height="94"/>
<path d="M55.051 106.906C55.051 106.906 46.9584 110.991 35.7248 110.991C24.4918 110.991 16.3983 106.906 16.3983 106.906C14.8175 111.437 14.2077 117.509 13.9827 120.777C13.8829 122.228 14.6635 123.596 15.9671 124.241C19.3571 125.918 26.5805 128.842 35.7248 128.842C44.8696 128.842 52.0921 125.918 55.483 124.241C56.786 123.596 57.5665 122.228 57.4664 120.777C57.2425 117.509 56.6323 111.437 55.051 106.906ZM60.5755 44.0898C60.2313 46.5684 59.0916 51.5361 55.3258 56.611C54.8025 57.316 53.9438 57.6892 53.0693 57.6137C50.164 57.3652 43.0668 56.8305 35.7248 56.8305C28.3824 56.8305 21.2856 57.3652 18.3803 57.6137C17.5057 57.6892 16.6469 57.316 16.1242 56.611C12.358 51.5361 11.2187 46.5684 10.8736 44.0898C10.7272 43.0353 11.2331 41.9958 12.1663 41.4856C14.753 40.0712 21.3178 37.618 35.7248 37.618C50.1315 37.618 56.6964 40.0712 59.2839 41.4856C60.2172 41.9958 60.7221 43.0353 60.5755 44.0898Z"/>
</mask>
<path d="M16.3983 106.906L15.4541 106.577L15.83 105.5L16.8488 106.014L16.3983 106.906ZM13.9827 120.777L12.985 120.709L12.985 120.708L13.9827 120.777ZM15.9671 124.241L15.5237 125.137L15.5237 125.137L15.9671 124.241ZM55.483 124.241L55.9267 125.137L55.9263 125.137L55.483 124.241ZM57.4664 120.777L56.4688 120.846L56.4688 120.846L57.4664 120.777ZM55.3258 56.611L56.1289 57.2069L56.1288 57.207L55.3258 56.611ZM53.0693 57.6137L53.1545 56.6173L53.1554 56.6174L53.0693 57.6137ZM18.3803 57.6137L18.2943 56.6174L18.2951 56.6173L18.3803 57.6137ZM16.1242 56.611L16.9272 56.015L16.9275 56.0154L16.1242 56.611ZM10.8736 44.0898L9.88317 44.2277L9.88313 44.2274L10.8736 44.0898ZM12.1663 41.4856L12.6461 42.363L12.646 42.3631L12.1663 41.4856ZM59.2839 41.4856L58.8043 42.3631L58.8042 42.3631L59.2839 41.4856ZM55.051 106.906C55.5016 107.799 55.5013 107.799 55.501 107.8C55.5009 107.8 55.5005 107.8 55.5002 107.8C55.4997 107.8 55.499 107.801 55.4981 107.801C55.4965 107.802 55.4944 107.803 55.4917 107.804C55.4865 107.807 55.4793 107.81 55.4701 107.815C55.4518 107.824 55.4256 107.837 55.3919 107.853C55.3243 107.886 55.2262 107.932 55.0986 107.991C54.8436 108.108 54.4709 108.273 53.9903 108.47C53.0292 108.864 51.6352 109.386 49.886 109.907C46.39 110.949 41.4605 111.991 35.7248 111.991V109.991C41.2227 109.991 45.9563 108.991 49.315 107.99C50.9931 107.49 52.3244 106.991 53.2317 106.619C53.6853 106.433 54.0326 106.279 54.264 106.173C54.3797 106.12 54.4664 106.079 54.5229 106.052C54.5511 106.038 54.5718 106.028 54.5848 106.022C54.5913 106.018 54.5958 106.016 54.5984 106.015C54.5998 106.014 54.6006 106.014 54.6009 106.014C54.6011 106.013 54.6011 106.013 54.601 106.013C54.601 106.013 54.6008 106.014 54.6008 106.014C54.6006 106.014 54.6004 106.014 55.051 106.906ZM35.7248 111.991C29.9894 111.991 25.0598 110.949 21.5636 109.907C19.8144 109.386 18.4203 108.864 17.4591 108.47C16.9785 108.273 16.6058 108.108 16.3507 107.991C16.2232 107.932 16.125 107.886 16.0574 107.853C16.0237 107.837 15.9975 107.824 15.9792 107.815C15.97 107.81 15.9628 107.807 15.9575 107.804C15.9549 107.803 15.9528 107.802 15.9511 107.801C15.9503 107.801 15.9496 107.8 15.9491 107.8C15.9488 107.8 15.9484 107.8 15.9483 107.8C15.948 107.799 15.9477 107.799 16.3983 106.906C16.8488 106.014 16.8486 106.014 16.8484 106.014C16.8484 106.014 16.8482 106.013 16.8482 106.013C16.8481 106.013 16.8481 106.013 16.8483 106.013C16.8486 106.014 16.8495 106.014 16.8508 106.015C16.8534 106.016 16.8579 106.018 16.8644 106.021C16.8774 106.028 16.8981 106.038 16.9263 106.052C16.9828 106.079 17.0695 106.12 17.1852 106.173C17.4167 106.279 17.764 106.433 18.2176 106.619C19.1251 106.991 20.4564 107.49 22.1347 107.99C25.4935 108.991 30.2272 109.991 35.7248 109.991V111.991ZM17.3424 107.236C15.8095 111.629 15.2049 117.584 14.9803 120.846L12.985 120.708C13.2105 117.434 13.8255 111.245 15.4541 106.577L17.3424 107.236ZM14.9803 120.846C14.9082 121.895 15.4723 122.88 16.4106 123.345L15.5237 125.137C13.8546 124.311 12.8576 122.561 12.985 120.709L14.9803 120.846ZM16.4106 123.344C19.7192 124.981 26.7869 127.842 35.7248 127.842V129.842C26.374 129.842 18.995 126.854 15.5237 125.137L16.4106 123.344ZM35.7248 127.842C44.6631 127.842 51.73 124.981 55.0396 123.344L55.9263 125.137C52.4542 126.854 45.076 129.842 35.7248 129.842V127.842ZM55.0393 123.345C55.9771 122.88 56.5412 121.895 56.4688 120.846L58.4641 120.708C58.5919 122.561 57.5949 124.311 55.9267 125.137L55.0393 123.345ZM56.4688 120.846C56.2453 117.584 55.6403 111.629 54.1069 107.236L55.9951 106.577C57.6243 111.245 58.2397 117.434 58.4641 120.709L56.4688 120.846ZM61.566 44.2273C61.2064 46.8165 60.0234 51.9586 56.1289 57.2069L54.5228 56.0151C58.1599 51.1137 59.2561 46.3203 59.585 43.9522L61.566 44.2273ZM56.1288 57.207C55.3922 58.1994 54.1925 58.7144 52.9833 58.61L53.1554 56.6174C53.6952 56.664 54.2129 56.4326 54.5228 56.015L56.1288 57.207ZM52.9841 58.61C50.0903 58.3625 43.0254 57.8305 35.7248 57.8305V55.8305C43.1083 55.8305 50.2377 56.3679 53.1545 56.6173L52.9841 58.61ZM35.7248 57.8305C28.4239 57.8305 21.3594 58.3625 18.4655 58.61L18.2951 56.6173C21.2119 56.3679 28.341 55.8305 35.7248 55.8305V57.8305ZM18.4663 58.61C17.2572 58.7143 16.0571 58.1996 15.3209 57.2065L16.9275 56.0154C17.2367 56.4325 17.7542 56.664 18.2943 56.6174L18.4663 58.61ZM15.3212 57.2069C11.4262 51.9586 10.2436 46.8165 9.88317 44.2277L11.8641 43.9519C12.1938 46.3203 13.2898 51.1137 16.9272 56.015L15.3212 57.2069ZM9.88313 44.2274C9.68124 42.7738 10.3778 41.3236 11.6867 40.6082L12.646 42.3631C12.0883 42.6679 11.7731 43.2969 11.8641 43.9522L9.88313 44.2274ZM11.6865 40.6083C14.4683 39.0872 21.2149 36.618 35.7248 36.618V38.618C21.4208 38.618 15.0378 41.0552 12.6461 42.363L11.6865 40.6083ZM35.7248 36.618C50.2345 36.618 56.9811 39.0872 59.7636 40.6082L58.8042 42.3631C56.4117 41.0552 50.0285 38.618 35.7248 38.618V36.618ZM59.7635 40.6082C61.0731 41.3239 61.768 42.7745 61.5659 44.2275L59.585 43.9521C59.6762 43.2961 59.3614 42.6676 58.8043 42.3631L59.7635 40.6082Z" fill="white" mask="url(#path-21-outside-9_56_60)"/>
<path d="M15.0038 142.431L15.0052 142.432C15.2986 142.522 15.6812 142.653 15.9987 142.863C16.3212 143.076 16.6517 143.425 16.6686 143.953L16.6697 143.986L16.6663 144.02L16.6625 144.057L16.6098 144.569L16.0995 144.501C12.3854 144.009 9.1529 142.002 7.04415 139.118L6.61959 138.537L7.31171 138.342C7.78565 138.208 8.30329 138.285 8.7192 138.484L8.71969 138.484C9.20635 138.718 9.59999 139.1 9.92086 139.412C9.9697 139.459 10.0169 139.505 10.0624 139.548L10.0626 139.549C11.455 140.877 13.1629 141.873 15.0038 142.431Z" stroke="white"/>
<path d="M56.4446 142.432L56.4459 142.431C58.2868 141.873 59.9946 140.877 61.3876 139.549L61.3877 139.548C61.4337 139.505 61.4813 139.458 61.5306 139.41C61.8508 139.099 62.2435 138.717 62.7299 138.484L62.7303 138.484C63.1463 138.285 63.664 138.208 64.1382 138.342L64.8306 138.537L64.4059 139.118C62.2971 142.002 59.0641 144.009 55.3502 144.501L54.8362 144.569L54.7868 144.053L54.7833 144.016L54.7802 143.985L54.7813 143.953C54.7982 143.425 55.1285 143.076 55.4509 142.863C55.7683 142.653 56.1509 142.522 56.4446 142.432Z" stroke="white"/>
</svg>
