<svg width="43" height="43" viewBox="0 0 43 43" fill="none" xmlns="http://www.w3.org/2000/svg">
<path fill-rule="evenodd" clip-rule="evenodd" d="M3.58337 21.5C3.58337 11.6049 11.6049 3.58333 21.5 3.58333C31.3951 3.58333 39.4167 11.6049 39.4167 21.5C39.4167 31.395 31.3951 39.4167 21.5 39.4167C11.6049 39.4167 3.58337 31.395 3.58337 21.5ZM21.5 7.16667C13.584 7.16667 7.16671 13.5839 7.16671 21.5C7.16671 29.4161 13.584 35.8333 21.5 35.8333C29.4162 35.8333 35.8334 29.4161 35.8334 21.5C35.8334 13.5839 29.4162 7.16667 21.5 7.16667Z" fill="#64DD77"/>
<path fill-rule="evenodd" clip-rule="evenodd" d="M23.2917 12.5417C23.2917 11.5522 22.4895 10.75 21.5 10.75C20.5105 10.75 19.7083 11.5522 19.7083 12.5417V19.7083H12.5417C11.5522 19.7083 10.75 20.5105 10.75 21.5C10.75 22.4895 11.5522 23.2917 12.5417 23.2917H19.7083V30.4583C19.7083 31.4479 20.5105 32.25 21.5 32.25C22.4895 32.25 23.2917 31.4479 23.2917 30.4583V23.2917H30.4583C31.4479 23.2917 32.25 22.4895 32.25 21.5C32.25 20.5105 31.4479 19.7083 30.4583 19.7083H23.2917V12.5417Z" fill="#64DD77"/>
</svg>
