<svg width="72" height="141" viewBox="0 0 72 141" fill="none" xmlns="http://www.w3.org/2000/svg">
<mask id="path-1-outside-1_45_358" maskUnits="userSpaceOnUse" x="2.79626" y="-0.501892" width="66" height="141" fill="black">
<rect fill="white" x="2.79626" y="-0.501892" width="66" height="141"/>
<path d="M4.47435 37.7821C4.02261 34.7807 3.79626 31.7519 3.79626 28.7205L3.79626 22.269C3.79626 10.5522 13.8159 1.05357 26.1757 1.05357H35.7254H45.2752C57.6347 1.05357 67.6546 10.5522 67.6546 22.269V28.7205C67.6546 31.7519 67.4281 34.7807 66.9768 37.7821L65.6387 46.6807C65.1426 49.9767 64.9178 53.3036 64.967 56.6329L65.507 93.5813C65.5386 95.7528 65.8994 97.9086 66.5799 99.9819C67.292 102.156 67.6546 104.419 67.6546 106.696V123.094C67.6546 132.153 59.907 139.498 50.3498 139.498H35.7254H21.1014C11.544 139.498 3.79626 132.153 3.79626 123.094L3.79626 106.696C3.79626 104.419 4.15844 102.156 4.87112 99.9819C5.55088 97.9086 5.9121 95.7528 5.94362 93.5813L6.48377 56.6329C6.53285 53.3036 6.30817 49.9767 5.81262 46.6807L4.47435 37.7821"/>
</mask>
<path d="M66.9768 37.7821L67.9656 37.9308L67.9656 37.9308L66.9768 37.7821ZM65.6387 46.6807L66.6276 46.8294L66.6275 46.8295L65.6387 46.6807ZM64.967 56.6329L65.9669 56.6182L65.9669 56.6183L64.967 56.6329ZM65.507 93.5813L66.5069 93.5666L66.5069 93.5667L65.507 93.5813ZM66.5799 99.9819L67.53 99.6701L67.5302 99.6707L66.5799 99.9819ZM4.87112 99.9819L3.92088 99.6704L3.92089 99.6704L4.87112 99.9819ZM5.94362 93.5813L4.94372 93.5667L4.94373 93.5666L5.94362 93.5813ZM6.48377 56.6329L5.48388 56.6183L5.48388 56.6182L6.48377 56.6329ZM5.81262 46.6807L6.8015 46.532L6.8015 46.532L5.81262 46.6807ZM3.48549 37.931C3.02633 34.8803 2.79626 31.8016 2.79626 28.7205H4.79626C4.79626 31.7021 5.0189 34.6812 5.46321 37.6333L3.48549 37.931ZM2.79626 28.7205L2.79626 22.269H4.79626V28.7205H2.79626ZM2.79626 22.269C2.79626 9.95027 13.3146 0.0535686 26.1757 0.0535686V2.05357C14.3172 2.05357 4.79626 11.1541 4.79626 22.269H2.79626ZM26.1757 0.0535686H35.7254V2.05357H26.1757V0.0535686ZM35.7254 0.0535686H45.2752L45.2752 2.05357H35.7254V0.0535686ZM45.2752 0.0535686C58.136 0.0535686 68.6546 9.95026 68.6546 22.269H66.6546C66.6546 11.1541 57.1334 2.05357 45.2752 2.05357L45.2752 0.0535686ZM68.6546 22.269V28.7205H66.6546V22.269H68.6546ZM68.6546 28.7205C68.6546 31.8017 68.4243 34.8803 67.9656 37.9308L65.9879 37.6335C66.4318 34.6812 66.6546 31.702 66.6546 28.7205H68.6546ZM67.9656 37.9308L66.6276 46.8294L64.6498 46.532L65.9879 37.6334L67.9656 37.9308ZM66.6275 46.8295C66.1396 50.0716 65.9185 53.3437 65.9669 56.6182L63.9671 56.6477C63.9171 53.2635 64.1456 49.8819 64.6498 46.5318L66.6275 46.8295ZM65.9669 56.6183L66.5069 93.5666L64.5071 93.5959L63.9671 56.6476L65.9669 56.6183ZM66.5069 93.5667C66.537 95.637 66.881 97.6925 67.53 99.6701L65.6298 100.294C64.9179 98.1247 64.5402 95.8687 64.5071 93.5958L66.5069 93.5667ZM67.5302 99.6707C68.275 101.945 68.6546 104.313 68.6546 106.696H66.6546C66.6546 104.526 66.309 102.367 65.6296 100.293L67.5302 99.6707ZM68.6546 106.696V123.094H66.6546V106.696H68.6546ZM68.6546 123.094C68.6546 132.755 60.4083 140.498 50.3498 140.498V138.498C59.4057 138.498 66.6546 131.551 66.6546 123.094H68.6546ZM50.3498 140.498H35.7254V138.498H50.3498V140.498ZM35.7254 140.498H21.1014V138.498H35.7254V140.498ZM21.1014 140.498C11.0427 140.498 2.79626 132.755 2.79626 123.094H4.79626C4.79626 131.551 12.0453 138.498 21.1014 138.498V140.498ZM2.79626 123.094L2.79626 106.696H4.79626L4.79626 123.094H2.79626ZM2.79626 106.696C2.79626 104.313 3.17538 101.945 3.92088 99.6704L5.82137 100.293C5.1415 102.367 4.79626 104.525 4.79626 106.696H2.79626ZM3.92089 99.6704C4.56934 97.6925 4.91368 95.6369 4.94372 93.5667L6.94351 93.5958C6.91052 95.8688 6.53242 98.1246 5.82136 100.293L3.92089 99.6704ZM4.94373 93.5666L5.48388 56.6183L7.48366 56.6476L6.94351 93.5959L4.94373 93.5666ZM5.48388 56.6182C5.53215 53.3437 5.31118 50.0715 4.82373 46.8293L6.8015 46.532C7.30516 49.882 7.53355 53.2635 7.48366 56.6477L5.48388 56.6182ZM4.82374 46.8294L3.48547 37.9309L5.46323 37.6334L6.8015 46.532L4.82374 46.8294Z" fill="white" mask="url(#path-1-outside-1_45_358)"/>
<mask id="path-3-outside-2_45_358" maskUnits="userSpaceOnUse" x="4.59399" y="3.59998" width="63" height="133" fill="black">
<rect fill="white" x="4.59399" y="3.59998" width="63" height="133"/>
<path d="M65.2171 39.6123C65.643 36.7791 65.8572 33.9217 65.8572 31.0601V24.9724C65.8572 13.9148 56.4019 4.95128 44.7373 4.95128H35.7253H26.7134C15.0495 4.95128 5.59399 13.9148 5.59399 24.9724L5.59399 31.0601C5.59399 33.9217 5.8077 36.7791 6.23398 39.6123L7.49682 48.009C7.96463 51.1194 8.17632 54.259 8.13031 57.4011L7.62063 92.2694C7.59086 94.3178 7.24993 96.3528 6.60854 98.3088C5.93598 100.361 5.59399 102.496 5.59399 104.645L5.59399 120.118C5.59399 128.669 12.9056 135.6 21.9244 135.6H35.7253H49.5262C58.5451 135.6 65.8572 128.669 65.8572 120.118V104.645C65.8572 102.496 65.5148 100.361 64.8422 98.3088C64.2004 96.3528 63.8597 94.3178 63.8299 92.2694L63.3197 57.4011C63.2741 54.259 63.4857 51.1194 63.9537 48.009L65.2171 39.6123"/>
</mask>
<path d="M6.23398 39.6123L7.22285 39.4636L7.22286 39.4636L6.23398 39.6123ZM7.49682 48.009L8.4857 47.8602L8.4857 47.8602L7.49682 48.009ZM8.13031 57.4011L7.13042 57.3865L7.13042 57.3864L8.13031 57.4011ZM7.62063 92.2694L6.62073 92.2548L6.62073 92.2548L7.62063 92.2694ZM6.60854 98.3088L5.65829 97.9973L5.65832 97.9972L6.60854 98.3088ZM64.8422 98.3088L65.7924 97.997L65.7925 97.9973L64.8422 98.3088ZM63.8299 92.2694L64.8298 92.2547L64.8298 92.2548L63.8299 92.2694ZM63.3197 57.4011L62.3199 57.4157L62.3198 57.4156L63.3197 57.4011ZM63.9537 48.009L62.9648 47.8602L62.9648 47.8602L63.9537 48.009ZM64.2282 39.4637C64.6467 36.6794 64.8572 33.8717 64.8572 31.0601H66.8572C66.8572 33.9716 66.6392 36.8787 66.206 39.761L64.2282 39.4637ZM64.8572 31.0601V24.9724H66.8572V31.0601H64.8572ZM64.8572 24.9724C64.8572 14.5167 55.9006 5.95128 44.7373 5.95128V3.95128C56.9031 3.95128 66.8572 13.3128 66.8572 24.9724H64.8572ZM44.7373 5.95128H35.7253V3.95128H44.7373V5.95128ZM35.7253 5.95128H26.7134V3.95128H35.7253V5.95128ZM26.7134 5.95128C15.5508 5.95128 6.59399 14.5167 6.59399 24.9724H4.59399C4.59399 13.3128 14.5482 3.95128 26.7134 3.95128V5.95128ZM6.59399 24.9724L6.59399 31.0601H4.59399L4.59399 24.9724H6.59399ZM6.59399 31.0601C6.59399 33.8718 6.80398 36.6795 7.22285 39.4636L5.24511 39.7611C4.81143 36.8786 4.59399 33.9715 4.59399 31.0601H6.59399ZM7.22286 39.4636L8.4857 47.8602L6.50794 48.1577L5.2451 39.7611L7.22286 39.4636ZM8.4857 47.8602C8.96163 51.0247 9.17701 54.2189 9.1302 57.4157L7.13042 57.3864C7.17563 54.2991 6.96762 51.2141 6.50794 48.1577L8.4857 47.8602ZM9.13021 57.4157L8.62052 92.284L6.62073 92.2548L7.13042 57.3865L9.13021 57.4157ZM8.62052 92.2839C8.58928 94.4337 8.23147 96.5689 7.55876 98.6204L5.65832 97.9972C6.26839 96.1368 6.59244 94.2018 6.62073 92.2548L8.62052 92.2839ZM7.55879 98.6203C6.91902 100.572 6.59399 102.603 6.59399 104.645H4.59399C4.59399 102.39 4.95294 100.149 5.65829 97.9973L7.55879 98.6203ZM6.59399 104.645L6.59399 120.118H4.59399L4.59399 104.645H6.59399ZM6.59399 120.118C6.59399 128.067 13.4068 134.6 21.9244 134.6V136.6C12.4043 136.6 4.59399 129.271 4.59399 120.118H6.59399ZM21.9244 134.6H35.7253V136.6H21.9244V134.6ZM35.7253 134.6H49.5262V136.6H35.7253V134.6ZM49.5262 134.6C58.0439 134.6 64.8572 128.067 64.8572 120.118H66.8572C66.8572 129.271 59.0463 136.6 49.5262 136.6V134.6ZM64.8572 120.118V104.645H66.8572V120.118H64.8572ZM64.8572 104.645C64.8572 102.603 64.5318 100.572 63.892 98.6203L65.7925 97.9973C66.4978 100.149 66.8572 102.39 66.8572 104.645H64.8572ZM63.8921 98.6206C63.2188 96.5689 62.8613 94.4336 62.83 92.2839L64.8298 92.2548C64.8581 94.2019 65.182 96.1368 65.7924 97.997L63.8921 98.6206ZM62.83 92.284L62.3199 57.4157L64.3196 57.3864L64.8298 92.2547L62.83 92.284ZM62.3198 57.4156C62.2734 54.2189 62.4887 51.0247 62.9648 47.8602L64.9425 48.1577C64.4827 51.2141 64.2748 54.2991 64.3196 57.3865L62.3198 57.4156ZM62.9648 47.8602L64.2283 39.4636L66.206 39.7611L64.9425 48.1578L62.9648 47.8602Z" fill="white" mask="url(#path-3-outside-2_45_358)"/>
<mask id="path-5-outside-3_45_358" maskUnits="userSpaceOnUse" x="0.000488281" y="40.9094" width="9" height="9" fill="black">
<rect fill="white" x="0.000488281" y="40.9094" width="9" height="9"/>
<path d="M5.51622 42.2618C5.51622 42.2618 1.86184 44.6515 1.25645 45.7992C0.651416 46.9462 1.25645 47.9983 1.65981 47.9034C2.06344 47.8068 6.80374 45.895 6.80374 45.895L5.51622 42.2618"/>
</mask>
<path d="M1.25645 45.7992L2.14096 46.2658L2.14094 46.2658L1.25645 45.7992ZM1.65981 47.9034L1.89246 48.876L1.8888 48.8768L1.65981 47.9034ZM6.80374 45.895L7.7463 45.5609L8.06633 46.464L7.17779 46.8224L6.80374 45.895ZM5.51622 42.2618C6.06351 43.0988 6.06355 43.0987 6.06359 43.0987C6.06358 43.0987 6.0636 43.0987 6.06358 43.0987C6.06355 43.0987 6.06346 43.0988 6.06332 43.0989C6.06303 43.0991 6.06253 43.0994 6.06181 43.0999C6.06038 43.1008 6.05808 43.1023 6.05494 43.1044C6.04867 43.1085 6.03906 43.1148 6.0263 43.1233C6.00079 43.1401 5.96272 43.1654 5.91373 43.1981C5.81573 43.2636 5.67421 43.359 5.50217 43.4772C5.15741 43.7142 4.69338 44.0406 4.21281 44.4005C3.72971 44.7623 3.24287 45.1483 2.84687 45.5052C2.41941 45.8904 2.20116 46.1516 2.14096 46.2658L0.371946 45.3327C0.614443 44.873 1.08001 44.4051 1.50802 44.0194C1.96747 43.6054 2.50774 43.1788 3.01391 42.7997C3.5226 42.4187 4.01 42.076 4.36936 41.829C4.54938 41.7053 4.69809 41.605 4.8023 41.5354C4.85442 41.5005 4.89545 41.4733 4.92376 41.4546C4.93792 41.4452 4.9489 41.438 4.9565 41.433C4.96029 41.4305 4.96325 41.4286 4.96533 41.4272C4.96637 41.4265 4.96719 41.426 4.96779 41.4256C4.96809 41.4254 4.96834 41.4253 4.96853 41.4251C4.96862 41.4251 4.96873 41.425 4.96877 41.425C4.96886 41.4249 4.96893 41.4249 5.51622 42.2618ZM2.14094 46.2658C1.96563 46.5981 1.98689 46.8698 2.03255 47.0127C2.05811 47.0927 2.0801 47.1 2.04597 47.0662C2.03655 47.0568 1.81329 46.84 1.43082 46.93L1.8888 48.8768C1.30466 49.0142 0.854509 48.7015 0.637101 48.4857C0.394998 48.2454 0.22791 47.9359 0.127421 47.6214C-0.0790234 46.9752 -0.0577635 46.1473 0.371974 45.3327L2.14094 46.2658ZM1.42717 46.9308C1.40862 46.9353 1.46517 46.919 1.65332 46.8502C1.81386 46.7915 2.02615 46.7112 2.27475 46.6155C2.77107 46.4246 3.39768 46.178 4.01445 45.9334C4.63064 45.689 5.23453 45.4475 5.68455 45.2671C5.90951 45.1768 6.0959 45.1019 6.22601 45.0496C6.29106 45.0234 6.34204 45.0029 6.37673 44.9889C6.39407 44.9819 6.40734 44.9766 6.41626 44.973C6.42072 44.9712 6.42409 44.9698 6.42634 44.9689C6.42747 44.9685 6.42831 44.9681 6.42887 44.9679C6.42915 44.9678 6.42936 44.9677 6.4295 44.9676C6.42957 44.9676 6.42961 44.9676 6.42965 44.9676C6.42968 44.9676 6.42969 44.9676 6.80374 45.895C7.17779 46.8224 7.17776 46.8224 7.17772 46.8224C7.17768 46.8224 7.17762 46.8224 7.17755 46.8225C7.1774 46.8225 7.17717 46.8226 7.17688 46.8227C7.17629 46.823 7.17542 46.8233 7.17426 46.8238C7.17195 46.8247 7.16852 46.8261 7.164 46.8279C7.15495 46.8316 7.14156 46.837 7.12408 46.844C7.08913 46.8581 7.03787 46.8787 6.97252 46.905C6.84182 46.9576 6.65473 47.0328 6.42897 47.1234C5.97757 47.3044 5.37116 47.5469 4.75182 47.7925C4.13306 48.0379 3.49891 48.2875 2.99291 48.4822C2.74034 48.5793 2.51608 48.6642 2.34013 48.7286C2.19179 48.7828 2.01191 48.8474 1.89246 48.876L1.42717 46.9308ZM5.86118 46.229L4.57366 42.5958L6.45879 41.9278L7.7463 45.5609L5.86118 46.229Z" fill="white" mask="url(#path-5-outside-3_45_358)"/>
<mask id="path-7-outside-4_45_358" maskUnits="userSpaceOnUse" x="62.6472" y="40.9094" width="9" height="9" fill="black">
<rect fill="white" x="62.6472" y="40.9094" width="9" height="9"/>
<path d="M65.9344 42.2618C65.9344 42.2618 69.5887 44.6515 70.1945 45.7992C70.7994 46.9462 70.1945 47.9983 69.7906 47.9034C69.3876 47.8068 64.6472 45.895 64.6472 45.895L65.9344 42.2618"/>
</mask>
<path d="M70.1945 45.7992L71.0789 45.3325L71.079 45.3327L70.1945 45.7992ZM69.7906 47.9034L69.5619 48.8769L69.5576 48.8759L69.7906 47.9034ZM64.6472 45.895L64.2732 46.8224L63.3847 46.464L63.7046 45.561L64.6472 45.895ZM65.9344 42.2618C66.4817 41.4249 66.4818 41.4249 66.4818 41.425C66.4819 41.425 66.482 41.4251 66.4821 41.4251C66.4823 41.4253 66.4825 41.4254 66.4828 41.4256C66.4834 41.426 66.4842 41.4266 66.4853 41.4272C66.4874 41.4286 66.4903 41.4305 66.4941 41.433C66.5017 41.438 66.5127 41.4452 66.5269 41.4546C66.5552 41.4733 66.5962 41.5005 66.6483 41.5354C66.7525 41.605 66.9012 41.7053 67.0812 41.829C67.4406 42.076 67.928 42.4187 68.4367 42.7997C68.9429 43.1788 69.4832 43.6054 69.9426 44.0194C70.3707 44.4051 70.8363 44.8728 71.0789 45.3325L69.3101 46.266C69.2498 46.1517 69.0314 45.8904 68.6039 45.5052C68.2078 45.1483 67.7209 44.7623 67.2378 44.4005C66.7572 44.0406 66.2932 43.7142 65.9484 43.4772C65.7764 43.359 65.6349 43.2636 65.5369 43.1981C65.4879 43.1654 65.4498 43.1401 65.4243 43.1232C65.4115 43.1148 65.4019 43.1085 65.3957 43.1044C65.3925 43.1023 65.3902 43.1008 65.3888 43.0999C65.3881 43.0994 65.3876 43.0991 65.3873 43.0989C65.3871 43.0988 65.3871 43.0987 65.387 43.0987C65.387 43.0987 65.387 43.0987 65.387 43.0987C65.387 43.0987 65.3871 43.0987 65.9344 42.2618ZM71.079 45.3327C71.5087 46.1473 71.53 46.9752 71.3234 47.6215C71.2228 47.936 71.0557 48.2456 70.8134 48.4859C70.5956 48.7019 70.1456 49.014 69.5619 48.8769L70.0193 46.9299C69.6376 46.8402 69.4146 47.0564 69.405 47.066C69.3708 47.0998 69.3928 47.0925 69.4183 47.0126C69.464 46.8697 69.4853 46.5981 69.31 46.2658L71.079 45.3327ZM69.5576 48.8759C69.4384 48.8473 69.2587 48.7828 69.1104 48.7285C68.9345 48.6642 68.7103 48.5793 68.4578 48.4821C67.9519 48.2875 67.3178 48.0379 66.6991 47.7925C66.0798 47.5469 65.4734 47.3044 65.022 47.1234C64.7962 47.0328 64.6091 46.9576 64.4784 46.905C64.4131 46.8787 64.3618 46.8581 64.3269 46.844C64.3094 46.837 64.296 46.8316 64.287 46.8279C64.2824 46.8261 64.279 46.8247 64.2767 46.8238C64.2755 46.8233 64.2747 46.823 64.2741 46.8227C64.2738 46.8226 64.2736 46.8225 64.2734 46.8225C64.2733 46.8224 64.2733 46.8224 64.2732 46.8224C64.2732 46.8224 64.2732 46.8224 64.6472 45.895C65.0213 44.9676 65.0213 44.9676 65.0213 44.9676C65.0213 44.9676 65.0214 44.9676 65.0215 44.9676C65.0216 44.9677 65.0218 44.9678 65.0221 44.9679C65.0226 44.9681 65.0235 44.9685 65.0246 44.9689C65.0269 44.9698 65.0302 44.9712 65.0347 44.973C65.0436 44.9766 65.0569 44.9819 65.0742 44.9889C65.1089 45.0029 65.1599 45.0234 65.2249 45.0496C65.3551 45.1019 65.5415 45.1768 65.7664 45.2671C66.2164 45.4475 66.8203 45.689 67.4365 45.9334C68.0532 46.1781 68.6798 46.4246 69.1761 46.6156C69.4246 46.7112 69.6369 46.7915 69.7974 46.8502C69.9855 46.919 70.0421 46.9353 70.0236 46.9309L69.5576 48.8759ZM63.7046 45.561L64.9918 41.9279L66.877 42.5958L65.5898 46.2289L63.7046 45.561Z" fill="white" mask="url(#path-7-outside-4_45_358)"/>
<mask id="path-9-outside-5_45_358" maskUnits="userSpaceOnUse" x="9.72534" y="1.5119" width="12" height="11" fill="black">
<rect fill="white" x="9.72534" y="1.5119" width="12" height="11"/>
<path d="M20.4078 5.44333C20.6349 4.92395 20.6949 4.3588 20.6205 3.80363C16.5449 5.35594 13.0956 8.06769 10.7253 11.5119C12.2155 10.3258 13.8831 9.34034 15.669 8.60788C17.4918 7.85961 19.6467 7.18375 20.4078 5.44333"/>
</mask>
<path d="M20.6205 3.80363L20.2645 2.86912L21.4438 2.41994L21.6116 3.67071L20.6205 3.80363ZM10.7253 11.5119L11.3481 12.2943L9.90157 10.945L10.7253 11.5119ZM15.669 8.60788L16.0487 9.53297L16.0485 9.53309L15.669 8.60788ZM19.4915 5.04277C19.6365 4.71115 19.6826 4.33348 19.6293 3.93655L21.6116 3.67071C21.7073 4.38412 21.6332 5.13675 21.3241 5.84389L19.4915 5.04277ZM20.9764 4.73814C17.0865 6.21973 13.802 8.80522 11.5491 12.0788L9.90157 10.945C12.3893 7.33015 16.0033 4.49215 20.2645 2.86912L20.9764 4.73814ZM10.1026 10.7295C11.6656 9.48543 13.4149 8.45153 15.2895 7.68268L16.0485 9.53309C14.3513 10.2292 12.7654 11.1662 11.3481 12.2943L10.1026 10.7295ZM15.2892 7.68279C16.2619 7.2835 17.1572 6.96569 17.9499 6.52407C18.7229 6.09345 19.2362 5.62668 19.4916 5.04268L21.324 5.84399C20.8183 7.0004 19.8737 7.74177 18.9232 8.27125C17.9925 8.78974 16.8989 9.18399 16.0487 9.53297L15.2892 7.68279Z" fill="white" mask="url(#path-9-outside-5_45_358)"/>
<mask id="path-11-outside-6_45_358" maskUnits="userSpaceOnUse" x="49.8005" y="1.5119" width="12" height="11" fill="black">
<rect fill="white" x="49.8005" y="1.5119" width="12" height="11"/>
<path d="M51.0434 5.44333C50.816 4.92395 50.7563 4.3588 50.831 3.80363C54.9058 5.35594 58.3555 8.06769 60.7253 11.5119C59.2353 10.3258 57.5679 9.34034 55.7821 8.60788C53.9584 7.85961 51.8038 7.18375 51.0434 5.44333"/>
</mask>
<path d="M50.831 3.80363L49.8399 3.6704L50.008 2.42001L51.1869 2.86914L50.831 3.80363ZM60.7253 11.5119L61.5491 10.9451L60.1025 12.2943L60.7253 11.5119ZM55.7821 8.60788L55.4026 9.53309L55.4025 9.53303L55.7821 8.60788ZM50.1274 5.84441C49.8175 5.1366 49.744 4.38356 49.8399 3.6704L51.822 3.93686C51.7686 4.33403 51.8146 4.7113 51.9595 5.04225L50.1274 5.84441ZM51.1869 2.86914C55.4474 4.49215 59.0619 7.33013 61.5491 10.9451L59.9014 12.0787C57.6491 8.80524 54.3642 6.21973 50.475 4.73812L51.1869 2.86914ZM60.1025 12.2943C58.6853 11.1662 57.0997 10.2291 55.4026 9.53309L56.1615 7.68268C58.0362 8.45154 59.7853 9.48546 61.3481 10.7295L60.1025 12.2943ZM55.4025 9.53303C54.5518 9.18399 53.4581 8.78978 52.5273 8.27124C51.5769 7.74172 50.6324 7.00026 50.1271 5.84368L51.9598 5.04299C52.2149 5.62682 52.7278 6.0935 53.5007 6.52409C54.2933 6.96565 55.1887 7.2835 56.1617 7.68273L55.4025 9.53303Z" fill="white" mask="url(#path-11-outside-6_45_358)"/>
<path d="M14.3083 77.1869L14.3175 77.893L13.6484 77.6672C13.4943 77.6152 13.3401 77.5632 13.1858 77.5112C11.3144 76.8805 9.42536 76.2439 7.58621 75.4922L7.27539 75.3651V75.0293L7.27539 46.6658V45.2868L8.15919 46.3453L7.77539 46.6658C8.15919 46.3453 8.15929 46.3454 8.15942 46.3456L8.15978 46.346L8.16089 46.3473L8.16468 46.3519L8.17834 46.3685C8.19012 46.3828 8.20718 46.4037 8.22916 46.431C8.27313 46.4855 8.33682 46.5655 8.41741 46.6693C8.57857 46.877 8.80746 47.1803 9.08148 47.5665C9.62922 48.3387 10.3589 49.4446 11.0888 50.7831C12.5433 53.4502 14.0244 57.0867 14.0244 60.8646C14.0244 62.0572 14.0696 64.2489 14.1268 67.0268C14.1867 69.9302 14.2598 73.474 14.3083 77.1869Z" stroke="white"/>
<path d="M14.1461 95.2462L14.1311 95.5325L13.8765 95.6642C11.9489 96.6615 9.9747 97.5734 7.96973 98.4192L7.27539 98.7121V97.9585L7.27539 76.4459V75.7471L7.93679 75.9726C9.91062 76.6458 11.9186 77.2226 13.9478 77.7542L14.3166 77.8509L14.321 78.2321C14.3913 84.2754 14.3871 90.6285 14.1461 95.2462Z" stroke="white"/>
<mask id="path-15-outside-7_45_358" maskUnits="userSpaceOnUse" x="6.77539" y="94.0444" width="8" height="15" fill="black">
<rect fill="white" x="6.77539" y="94.0444" width="8" height="15"/>
<path d="M7.77539 99.5342L7.77539 107.044C7.77539 107.044 12.768 106.9 13.5244 97.1487C13.5449 96.8832 13.5641 96.6052 13.5823 96.3214C11.6775 97.4492 9.79034 98.6061 7.77539 99.5342"/>
</mask>
<path d="M7.77539 107.044L7.80422 108.044L6.77539 108.074V107.044H7.77539ZM13.5244 97.1487L14.5214 97.2259L14.5214 97.226L13.5244 97.1487ZM13.5823 96.3214L13.0728 95.4609L14.7012 94.4968L14.5803 96.3853L13.5823 96.3214ZM8.77539 99.5342V107.044H6.77539L6.77539 99.5342H8.77539ZM7.77539 107.044C7.74656 106.045 7.74563 106.045 7.74471 106.045C7.74443 106.045 7.74354 106.045 7.74297 106.045C7.74185 106.045 7.7408 106.045 7.73982 106.045C7.73785 106.045 7.73617 106.045 7.73477 106.045C7.73196 106.045 7.73026 106.045 7.72965 106.045C7.72842 106.046 7.73148 106.045 7.73857 106.045C7.75279 106.043 7.78299 106.04 7.8271 106.033C7.91543 106.018 8.05861 105.987 8.24063 105.924C8.60207 105.799 9.12474 105.545 9.68342 105.023C10.7899 103.989 12.162 101.782 12.5274 97.0714L14.5214 97.226C14.1304 102.267 12.628 105.008 11.0491 106.484C10.2651 107.217 9.4923 107.608 8.89399 107.815C8.59613 107.918 8.34335 107.974 8.15569 108.006C8.06181 108.021 7.98401 108.03 7.92472 108.036C7.89506 108.039 7.87 108.041 7.84982 108.042C7.83974 108.042 7.83087 108.043 7.82326 108.043C7.81945 108.043 7.81596 108.044 7.81279 108.044C7.8112 108.044 7.80969 108.044 7.80826 108.044C7.80755 108.044 7.80654 108.044 7.80618 108.044C7.80519 108.044 7.80422 108.044 7.77539 107.044ZM12.5273 97.0716C12.5475 96.8115 12.5664 96.5381 12.5844 96.2575L14.5803 96.3853C14.5619 96.6723 14.5424 96.9548 14.5214 97.2259L12.5273 97.0716ZM14.0918 97.1819C12.2082 98.2971 10.2672 99.4875 8.19373 100.442L7.35705 98.6259C9.31345 97.7248 11.1467 96.6013 13.0728 95.4609L14.0918 97.1819Z" fill="white" mask="url(#path-15-outside-7_45_358)"/>
<path d="M57.8023 77.6672L57.1333 77.893L57.1425 77.1869C57.191 73.48 57.2638 69.9415 57.3235 67.0407C57.3808 64.2561 57.4261 62.0591 57.4261 60.8646C57.4261 57.0867 58.9072 53.4502 60.3617 50.7831C61.0917 49.4446 61.8214 48.3387 62.3692 47.5665C62.6432 47.1803 62.8721 46.877 63.0333 46.6693C63.1138 46.5655 63.1775 46.4855 63.2215 46.431C63.2435 46.4037 63.2606 46.3828 63.2723 46.3685L63.286 46.3519L63.2898 46.3473L63.2909 46.346L63.2913 46.3456C63.2914 46.3454 63.2915 46.3453 63.6753 46.6658L63.2915 46.3453L64.1753 45.2869V46.6658V75.0293V75.3651L63.8645 75.4922C62.0261 76.2437 60.1374 76.8802 58.2665 77.5107C58.1117 77.5628 57.9569 77.615 57.8023 77.6672Z" stroke="white"/>
<path d="M57.5743 95.6642L57.3198 95.5324L57.3048 95.2462C57.0633 90.6285 57.0592 84.2754 57.1294 78.2321L57.1338 77.8509L57.5026 77.7542C59.5317 77.2226 61.5404 76.6458 63.514 75.9727L64.1754 75.747V76.4459V97.9585V98.7121L63.481 98.4192C61.476 97.5734 59.5016 96.6615 57.5743 95.6642Z" stroke="white"/>
<mask id="path-19-outside-8_45_358" maskUnits="userSpaceOnUse" x="55.868" y="94.0444" width="9" height="15" fill="black">
<rect fill="white" x="55.868" y="94.0444" width="9" height="15"/>
<path d="M63.6752 99.5342V107.044C63.6752 107.044 58.6828 106.9 57.926 97.1487C57.9058 96.8832 57.8865 96.6052 57.868 96.3214C59.7733 97.4492 61.6602 98.6061 63.6752 99.5342"/>
</mask>
<path d="M63.6752 107.044H64.6752V108.074L63.6464 108.044L63.6752 107.044ZM57.926 97.1487L56.929 97.2261L56.9289 97.2245L57.926 97.1487ZM57.868 96.3214L56.8701 96.3862L56.7473 94.4959L58.3774 95.4608L57.868 96.3214ZM64.6752 99.5342V107.044H62.6752V99.5342H64.6752ZM63.6752 107.044C63.6464 108.044 63.6454 108.044 63.6444 108.044C63.6441 108.044 63.643 108.044 63.6423 108.044C63.6409 108.044 63.6394 108.044 63.6378 108.044C63.6346 108.044 63.6311 108.043 63.6273 108.043C63.6197 108.043 63.6109 108.042 63.6008 108.042C63.5806 108.041 63.5555 108.039 63.5259 108.036C63.4666 108.03 63.3888 108.021 63.2949 108.006C63.1073 107.974 62.8545 107.918 62.5566 107.815C61.9583 107.608 61.1856 107.217 60.4016 106.484C58.8227 105.008 57.3202 102.267 56.929 97.2261L58.923 97.0713C59.2886 101.782 60.6607 103.989 61.7672 105.023C62.3259 105.545 62.8486 105.799 63.21 105.924C63.392 105.987 63.5352 106.018 63.6235 106.033C63.6676 106.04 63.6978 106.043 63.712 106.045C63.7191 106.045 63.7222 106.046 63.721 106.045C63.7203 106.045 63.7186 106.045 63.7158 106.045C63.7144 106.045 63.7128 106.045 63.7108 106.045C63.7098 106.045 63.7088 106.045 63.7076 106.045C63.7071 106.045 63.7062 106.045 63.7059 106.045C63.705 106.045 63.704 106.045 63.6752 107.044ZM56.9289 97.2245C56.9083 96.9546 56.8888 96.6728 56.8701 96.3862L58.8659 96.2565C58.8842 96.5376 58.9032 96.8118 58.9231 97.0729L56.9289 97.2245ZM58.3774 95.4608C60.3042 96.6013 62.137 97.7248 64.0935 98.6259L63.2569 100.442C61.1833 99.4875 59.2425 98.297 57.3587 97.1819L58.3774 95.4608Z" fill="white" mask="url(#path-19-outside-8_45_358)"/>
<mask id="path-21-outside-9_45_358" maskUnits="userSpaceOnUse" x="8.84912" y="34.2463" width="53" height="89" fill="black">
<rect fill="white" x="8.84912" y="34.2463" width="53" height="89"/>
<path d="M55.0515 101.452C55.0515 101.452 46.9589 105.324 35.7253 105.324C24.4923 105.324 16.3987 101.452 16.3987 101.452C14.818 105.747 14.2082 111.503 13.9831 114.601C13.8834 115.976 14.664 117.273 15.9676 117.885C19.3576 119.475 26.581 122.246 35.7253 122.246C44.8701 122.246 52.0926 119.475 55.4835 117.885C56.7865 117.273 57.567 115.976 57.4669 114.601C57.243 111.503 56.6328 105.747 55.0515 101.452V101.452ZM60.576 41.9022C60.2318 44.2519 59.0921 48.9613 55.3263 53.7722C54.803 54.4406 53.9443 54.7943 53.0698 54.7227C50.1645 54.4872 43.0673 53.9803 35.7253 53.9803C28.3829 53.9803 21.2861 54.4872 18.3808 54.7227C17.5062 54.7943 16.6474 54.4406 16.1247 53.7722C12.3585 48.9613 11.2192 44.2519 10.8741 41.9022C10.7277 40.9026 11.2336 39.9171 12.1668 39.4335C14.7535 38.0926 21.3183 35.7671 35.7253 35.7671C50.132 35.7671 56.6969 38.0926 59.2844 39.4335C60.2177 39.9171 60.7226 40.9026 60.576 41.9022"/>
</mask>
<path d="M16.3987 101.452L15.4603 101.106L15.8396 100.076L16.8303 100.55L16.3987 101.452ZM13.9831 114.601L12.9858 114.529L12.9858 114.529L13.9831 114.601ZM15.9676 117.885L15.543 118.79L15.543 118.79L15.9676 117.885ZM55.4835 117.885L55.9083 118.79L55.908 118.79L55.4835 117.885ZM57.4669 114.601L56.4695 114.674L56.4695 114.673L57.4669 114.601ZM55.3263 53.7722L56.1138 54.3886L56.1137 54.3887L55.3263 53.7722ZM53.0698 54.7227L53.1506 53.726L53.1514 53.7261L53.0698 54.7227ZM18.3808 54.7227L18.2992 53.7261L18.3 53.726L18.3808 54.7227ZM16.1247 53.7722L16.9121 53.1558L16.9124 53.1562L16.1247 53.7722ZM10.8741 41.9022L9.88472 42.0475L9.88467 42.0472L10.8741 41.9022ZM12.1668 39.4335L12.627 40.3213L12.6269 40.3214L12.1668 39.4335ZM59.2844 39.4335L58.8243 40.3214L58.8243 40.3214L59.2844 39.4335ZM55.0515 101.452C55.4831 102.354 55.4828 102.354 55.4825 102.354C55.4824 102.354 55.4821 102.354 55.4818 102.355C55.4812 102.355 55.4805 102.355 55.4797 102.356C55.4781 102.356 55.476 102.357 55.4734 102.359C55.4681 102.361 55.4609 102.364 55.4518 102.369C55.4335 102.377 55.4075 102.389 55.3737 102.405C55.3063 102.436 55.2083 102.48 55.0809 102.535C54.8262 102.646 54.4539 102.802 53.9737 102.989C53.0135 103.362 51.6206 103.857 49.8728 104.35C46.3794 105.337 41.4547 106.324 35.7253 106.324V104.324C41.2294 104.324 45.9678 103.375 49.3292 102.426C51.0087 101.951 52.3411 101.478 53.2493 101.125C53.7033 100.948 54.051 100.802 54.2827 100.701C54.3985 100.651 54.4854 100.612 54.542 100.586C54.5703 100.573 54.591 100.563 54.6041 100.557C54.6106 100.554 54.6152 100.552 54.6178 100.551C54.6191 100.55 54.62 100.55 54.6203 100.55C54.6205 100.55 54.6205 100.549 54.6205 100.55C54.6204 100.55 54.6203 100.55 54.6203 100.55C54.6201 100.55 54.6199 100.55 55.0515 101.452ZM35.7253 106.324C29.9961 106.324 25.0713 105.337 21.5778 104.35C19.83 103.857 18.437 103.362 17.4767 102.989C16.9965 102.802 16.6241 102.646 16.3694 102.535C16.242 102.48 16.144 102.436 16.0765 102.405C16.0428 102.389 16.0167 102.377 15.9985 102.369C15.9893 102.364 15.9821 102.361 15.9769 102.359C15.9743 102.357 15.9722 102.356 15.9706 102.356C15.9698 102.355 15.9691 102.355 15.9685 102.355C15.9682 102.354 15.9679 102.354 15.9677 102.354C15.9674 102.354 15.9672 102.354 16.3987 101.452C16.8303 100.55 16.8301 100.55 16.8299 100.55C16.8299 100.55 16.8298 100.55 16.8297 100.55C16.8296 100.549 16.8297 100.55 16.8299 100.55C16.8302 100.55 16.8311 100.55 16.8324 100.551C16.835 100.552 16.8396 100.554 16.8461 100.557C16.8592 100.563 16.8799 100.573 16.9082 100.586C16.9648 100.612 17.0517 100.651 17.1675 100.701C17.3993 100.802 17.747 100.948 18.201 101.125C19.1093 101.478 20.4418 101.951 22.1214 102.426C25.483 103.375 30.2214 104.324 35.7253 104.324V106.324ZM17.3372 101.797C15.809 105.949 15.205 111.583 14.9805 114.674L12.9858 114.529C13.2113 111.424 13.8269 105.544 15.4603 101.106L17.3372 101.797ZM14.9805 114.673C14.9123 115.614 15.444 116.534 16.3923 116.979L15.543 118.79C13.8839 118.012 12.8545 116.338 12.9858 114.529L14.9805 114.673ZM16.3923 116.979C19.702 118.532 26.7766 121.246 35.7253 121.246V123.246C26.3854 123.246 19.0131 120.418 15.543 118.79L16.3923 116.979ZM35.7253 121.246C44.6744 121.246 51.7481 118.532 55.0589 116.979L55.908 118.79C52.4371 120.418 45.0657 123.246 35.7253 123.246V121.246ZM55.0586 116.979C56.0063 116.535 56.538 115.614 56.4695 114.674L58.4643 114.529C58.596 116.338 57.5666 118.012 55.9083 118.79L55.0586 116.979ZM56.4695 114.673C56.2462 111.583 55.6418 105.949 54.1131 101.797L55.9899 101.106C57.6238 105.544 58.2399 111.424 58.4643 114.529L56.4695 114.673ZM61.5654 42.0472C61.2039 44.515 60.016 49.4034 56.1138 54.3886L54.5389 53.1558C58.1683 48.5192 59.2596 43.9889 59.5865 41.7573L61.5654 42.0472ZM56.1137 54.3887C55.3684 55.3405 54.1735 55.8164 52.9882 55.7194L53.1514 53.7261C53.7152 53.7722 54.2376 53.5406 54.5389 53.1557L56.1137 54.3887ZM52.989 55.7195C50.0946 55.4848 43.028 54.9803 35.7253 54.9803V52.9803C43.1066 52.9803 50.2344 53.4896 53.1506 53.726L52.989 55.7195ZM35.7253 54.9803C28.4222 54.9803 21.356 55.4848 18.4616 55.7195L18.3 53.726C21.2162 53.4896 28.3436 52.9803 35.7253 52.9803V54.9803ZM18.4623 55.7194C17.2772 55.8164 16.0818 55.3407 15.337 54.3882L16.9124 53.1562C17.213 53.5405 17.7352 53.7722 18.2992 53.7261L18.4623 55.7194ZM15.3373 54.3886C11.4346 49.4034 10.2471 44.5149 9.88472 42.0475L11.8635 41.7569C12.1913 43.9889 13.2824 48.5192 16.9121 53.1558L15.3373 54.3886ZM9.88467 42.0472C9.67488 40.6152 10.4043 39.2205 11.7067 38.5457L12.6269 40.3214C12.0628 40.6137 11.7804 41.19 11.8635 41.7573L9.88467 42.0472ZM11.7066 38.5457C14.483 37.1065 21.222 34.7671 35.7253 34.7671V36.7671C21.4147 36.7671 15.024 39.0788 12.627 40.3213L11.7066 38.5457ZM35.7253 34.7671C50.2284 34.7671 56.9674 37.1065 59.7445 38.5457L58.8243 40.3214C56.4264 39.0788 50.0356 36.7671 35.7253 36.7671V34.7671ZM59.7444 38.5456C61.0477 39.2209 61.7753 40.616 61.5654 42.0474L59.5865 41.7571C59.6698 41.1892 59.3878 40.6134 58.8243 40.3214L59.7444 38.5456Z" fill="white" mask="url(#path-21-outside-9_45_358)"/>
<path d="M14.9972 135.102L14.9986 135.102C15.2913 135.187 15.6723 135.311 15.9889 135.51C16.3063 135.709 16.6513 136.045 16.669 136.57L16.6702 136.605L16.6663 136.641L16.6625 136.675L16.6077 137.181L16.1032 137.117C12.3973 136.652 9.16483 134.752 7.05222 132.014L6.59395 131.42L7.31867 131.225C7.78574 131.1 8.29708 131.172 8.7103 131.359L8.71078 131.359C9.19656 131.58 9.59025 131.943 9.91142 132.239C9.96027 132.284 10.0074 132.327 10.053 132.368L10.0532 132.368C11.4446 133.626 13.1531 134.572 14.9972 135.102Z" stroke="white"/>
<path d="M56.4521 135.102L56.4533 135.102C58.2975 134.572 60.0059 133.626 61.3979 132.368L61.3979 132.368C61.4439 132.327 61.4916 132.283 61.5409 132.237C61.8614 131.942 62.2542 131.58 62.7397 131.359L62.74 131.359C63.1534 131.172 63.6648 131.1 64.1321 131.225L64.8572 131.419L64.3987 132.014C62.286 134.752 59.053 136.652 55.3473 137.117L54.839 137.181L54.7875 136.672L54.784 136.637L54.7806 136.603L54.7818 136.57C54.7995 136.045 55.1442 135.709 55.4616 135.51C55.7781 135.311 56.1591 135.187 56.4521 135.102Z" stroke="white"/>
</svg>
