<svg width="27" height="27" viewBox="0 0 27 27" fill="none" xmlns="http://www.w3.org/2000/svg">
<g clip-path="url(#clip0_56_53)">
<path d="M26.6771 16.2L25.2317 15.4125C23.6659 14.5125 23.6659 12.375 25.2317 11.475L26.6771 10.6875C27.8817 10.0125 28.243 8.6625 27.5203 7.65L26.3158 5.7375C25.5931 4.6125 24.1477 4.275 23.0636 4.95L21.6182 5.7375C20.0523 6.6375 18.0047 5.5125 18.0047 3.825V2.25C18.0047 1.0125 16.9206 0 15.5956 0H13.1866C11.8616 0 10.7776 1.0125 10.7776 2.25V3.7125C10.7776 5.4 8.7299 6.525 7.16404 5.625L5.71862 4.95C4.51411 4.275 3.06869 4.725 2.46644 5.7375L1.26193 7.65C0.659669 8.775 1.02102 10.125 2.10508 10.8L3.5505 11.5875C5.11637 12.375 5.11637 14.625 3.5505 15.4125L2.10508 16.2C0.900571 16.875 0.539218 18.225 1.26193 19.2375L2.46644 21.15C3.18915 22.275 4.63456 22.6125 5.71862 21.9375L7.16404 21.2625C8.7299 20.3625 10.7776 21.4875 10.7776 23.175V24.75C10.7776 25.9875 11.8616 27 13.1866 27H15.5956C16.9206 27 18.0047 25.9875 18.0047 24.75V23.2875C18.0047 21.6 20.0523 20.475 21.6182 21.375L23.0636 22.1625C24.2681 22.8375 25.7135 22.3875 26.3158 21.375L27.5203 19.4625C28.1226 18.225 27.7612 16.875 26.6771 16.2ZM14.3911 18C11.7412 18 9.57306 15.975 9.57306 13.5C9.57306 11.025 11.7412 9 14.3911 9C17.041 9 19.2092 11.025 19.2092 13.5C19.2092 15.975 17.041 18 14.3911 18Z" fill="#64DD77"/>
</g>
<defs>
<clipPath id="clip0_56_53">
<rect width="27" height="27" fill="white"/>
</clipPath>
</defs>
</svg>
